<svg width="71" height="71" xmlns="http://www.w3.org/2000/svg"><g fill="#FFF" fill-rule="nonzero"><path d="M68.762 29.734h-46.11l8.66-23.742A4.468 4.468 0 0 0 25.218.42a4.44 4.44 0 0 0-2.312 2.52L.272 65.005a4.424 4.424 0 0 0 .15 3.414 4.439 4.439 0 0 0 2.523 2.308c.5.181 1.016.272 1.532.272.644 0 1.286-.141 1.888-.42a4.437 4.437 0 0 0 2.311-2.52l13.012-35.027h3.098l-3.098 34.35a3.362 3.362 0 0 0 3.352 3.614h39.214a3.364 3.364 0 0 0 3.354-3.588l-2.292-34.376h3.446c1.267 0 1.95-.629 1.95-1.893-.42-.842-.683-1.406-1.95-1.406zM25.064 3.724c.2-.546.599-.98 1.125-1.226a2.167 2.167 0 0 1 1.662-.073 2.174 2.174 0 0 1 1.302 2.783L24.34 18.4l-4.089-1.486 4.812-13.192zM6.52 67.273a2.179 2.179 0 0 1-2.789 1.3 2.173 2.173 0 0 1-1.3-2.784l17.038-46.72 4.088 1.485L6.52 67.275zM64.017 68H25.803c-.573 0-1.039-.463-1.035-1.112l1.784-23.4h36.925l1.577 23.48c0 .569-.465 1.032-1.037 1.032zM27.023 41.191l.802-7.737h35.159l.369 7.737h-36.33z"/><path d="M30.025 19.124l6.57.95L39.533 26l2.938-5.925 6.57-.951-4.754-4.612L45.41 8l-5.877 3.074L33.656 8l1.123 6.512-4.754 4.612zm6.703-6.916l2.805 1.467 2.805-1.467-.536 3.108 2.269 2.2-3.136.454-1.402 2.828-1.402-2.828-3.136-.453 2.269-2.201-.536-3.108zM55.519 26.796l4.386-2.1L64.18 27l-.71-4.686 3.586-3.221-4.823-.796L60.173 14l-2.27 4.195-4.859.567 3.418 3.386-.943 4.648zm3.845-6.549l.685-1.263.62 1.294 1.452.24-1.08.97.214 1.411-1.288-.694-1.32.632.285-1.398-1.029-1.02 1.461-.172z"/></g></svg>
