<svg width="37" height="71" xmlns="http://www.w3.org/2000/svg"><path d="M29.907 22.404v-6.067c0-.647-.527-1.171-1.176-1.171h-4.31v-3.52c.533-.112.933-.583.933-1.146V1.172C25.354.525 24.827 0 24.178 0H1.175C.77 0 .392.209.178.552A1.169 1.169 0 0 0 .12 1.688l2.296 4.664c.198.401.607.655 1.056.655h10.266V10.5c0 .564.4 1.034.932 1.146v3.52h-4.31c-.649 0-1.175.525-1.175 1.172v6.066c-3.899 3.137-6.124 7.76-6.124 12.777v34.647c0 .647.527 1.172 1.176 1.172h30.617c.65 0 1.176-.525 1.176-1.172V35.181c0-5.018-2.224-9.64-6.123-12.777zM13.738 4.664H4.205l-1.143-2.32h10.676v2.32zM17.022 3h5.049v6h-5.05V3zm5.049 8.671v3.495h-5.05v-3.495h5.05zM6.005 68V35.18c0-4.472 1.97-8.58 5.406-11.27a2.08 2.08 0 0 0 .106-.095c.047-.05.062-.068.077-.086l.067-.09c.063-.108.069-.12.075-.133.053-.127.06-.147.067-.168.032-.126.035-.142.038-.158.015-.136.017-.162.017-.187l-.055-4.974H27.173v3.784H15.23c-.62 0-1.124.524-1.124 1.171s.504 2.03 1.124 2.03H28.7c3.254 2.691 4.328 5.832 4.328 10.176V68H6.005z" fill="#FFF" fill-rule="nonzero"/></svg>
