<svg width="82" height="37" xmlns="http://www.w3.org/2000/svg"><g fill="#FFF" fill-rule="nonzero"><path d="M63.553 24c-3.587 0-6.505 2.916-6.505 6.5s2.918 6.5 6.505 6.5c3.587 0 6.505-2.916 6.505-6.5S67.14 24 63.553 24zm0 10.4a3.906 3.906 0 0 1-3.903-3.9c0-2.15 1.751-3.9 3.903-3.9a3.906 3.906 0 0 1 3.903 3.9c0 2.15-1.751 3.9-3.903 3.9zM17.515 24c-3.587 0-6.506 2.916-6.506 6.5s2.918 6.5 6.506 6.5c3.587 0 6.505-2.916 6.505-6.5S21.102 24 17.515 24zm0 10.4a3.906 3.906 0 0 1-3.904-3.9c0-2.15 1.752-3.9 3.904-3.9a3.906 3.906 0 0 1 3.903 3.9c0 2.15-1.751 3.9-3.903 3.9z"/><path d="M79.717 23.816v-8.183c0-.588-.372-1.11-.924-1.295l-7.625-2.565c-2.87-4.91-6.817-9.58-15.54-11.124-16.153-2.256-28.246 1.412-36.01 10.897-8.975.131-18.267 2.989-18.267 8.178v4.092C.605 23.816 0 24.427 0 25.18v5.456C0 31.39.605 32 1.351 32h5.405c.745 0 1.35-.611 1.35-1.364 0-5.265 4.243-9.548 9.459-9.548 5.215 0 9.457 4.283 9.457 9.548 0 .753.606 1.364 1.352 1.364h24.32c.746 0 1.351-.611 1.351-1.364 0-5.265 4.243-9.548 9.458-9.548s9.458 4.283 9.458 9.548c0 .753.605 1.364 1.351 1.364h5.404c.746 0 1.352-.611 1.352-1.364V25.18c0-.753-.605-1.364-1.35-1.364zM62.218 5.888c2.347 1.453 4.096 3.37 5.613 5.653h-5.665l.052-5.653zm-16.28-3.16c2.89-.04 5.964.156 9.25.614 1.626.289 3.055.7 4.342 1.21l-.066 6.99H45.939V2.728zm-2.702.116v8.698H23.27c5.009-5.216 11.613-8.098 19.967-8.698zm35.13 26.428h-2.777c-.674-6.13-5.837-10.911-12.086-10.911-6.249 0-11.411 4.782-12.086 10.911H29.651c-.675-6.13-5.837-10.911-12.086-10.911-6.25 0-11.412 4.782-12.086 10.911H2.702v-2.728c.746 0 1.351-.61 1.351-1.364V21.09c.017-.159-.004-.531 0-.791.004-.196 0 .274 0-.415 0-.69.155-.768.274-.984.118-.217.217-.297.378-.538 1.828-2.004 7.42-4.092 15.562-4.092h49.772l6.976 2.347v8.564c0 .753.605 1.364 1.35 1.364v2.728z"/></g></svg>
