<svg width="45" height="66" xmlns="http://www.w3.org/2000/svg"><path d="M32.306 25.108c1.275-5.074 3.926-16.654 2.14-18.683-.32-.367-.798-.604-1.38-.743V1.375c0-.76-.618-1.375-1.381-1.375s-1.38.615-1.38 1.375v4.217c-3.701.366-8.287 2.14-8.287 2.14s-4.585-1.774-8.286-2.14V1.375c0-.76-.617-1.375-1.38-1.375-.763 0-1.382.615-1.382 1.375v4.307c-.58.138-1.058.377-1.38.743-1.785 2.03.866 13.609 2.14 18.684C-1.986 34.647.117 63.23.117 63.23S6.069 66 21.933 66c15.867 0 21.988-2.77 21.988-2.77s2.102-28.583-11.615-38.122zM11.8 8.321c.161-.025.39-.045.7-.045 2.695 0 7.064 1.458 8.519 2.018l1 .386.999-.386c1.455-.56 5.824-2.018 8.519-2.018.31 0 .538.02.7.045.101.88.142 3.437-1.17 9.839a156.7 156.7 0 0 1-1.517 6.583H14.487c-.409-1.613-.99-4.015-1.51-6.557-1.32-6.421-1.279-8.983-1.177-9.865zM3.289 49.867c.485-4.145 1.287-7.88 2.383-11.102 1.322-3.88 3.068-7 5.189-9.269a15.528 15.528 0 0 1 2.27-2.005h17.775a15.521 15.521 0 0 1 2.27 2.005c2.12 2.27 3.867 5.388 5.188 9.269 1.097 3.222 1.898 6.956 2.384 11.102.235 2.02.372 3.943.445 5.667-2.246.716-8.393 2.285-19.175 2.285-10.72 0-16.912-1.573-19.175-2.289.073-1.722.21-3.645.446-5.663zm37.955 11.366c-.771.22-1.844.485-3.24.75-3.047.579-8.308 1.268-16.07 1.268-7.745 0-12.953-.687-15.96-1.261a36.5 36.5 0 0 1-3.181-.745 79.56 79.56 0 0 1-.026-2.858c2.938.845 9.162 2.18 19.251 2.18 10.09 0 16.314-1.334 19.252-2.18a78.951 78.951 0 0 1-.026 2.846z" fill="#FFF" fill-rule="nonzero"/></svg>
