<svg width="77" height="58" xmlns="http://www.w3.org/2000/svg"><path d="M73.882 18.626c-1.52-1.517-3.27-1.913-4.111-2.095a9.118 9.118 0 0 0-3.137-.148C62.424 6.616 51.164 0 38.04 0 25.658 0 14.712 6.665 10.255 16.531a9.096 9.096 0 0 0-3.946.017c-.842.181-2.592.577-4.11 2.095-.282.28-2.675 2.788-2.114 6.368.545 3.547 3.616 5.758 6.24 6.319a6.398 6.398 0 0 0 2.741-.017c.083-.016.165-.033.231-.05.264.446 1.106 2.805-.94 12.968-.05.264-.034.545.049.809 1.205 3.86 3.153 5.741 6.34 6.104.065 0 .115.017.18.017v4.95c0 .907.744 1.649 1.652 1.649.908 0 1.65-.742 1.65-1.65v-4.95h39.623v4.95c0 .908.743 1.65 1.651 1.65s1.651-.742 1.651-1.65v-4.95c.066 0 .116 0 .182-.016 3.186-.363 5.15-2.244 6.34-6.104.082-.264.098-.545.049-.809-2.047-10.179-1.205-12.538-.941-12.967.066.016.148.033.23.05a6.321 6.321 0 0 0 2.725.016c2.625-.561 5.696-2.772 6.24-6.319.562-3.596-1.832-6.104-2.096-6.385zM38.04 3.3c11.655 0 21.644 5.675 25.44 14.106-.56.313-1.106.66-1.617 1.039a14.98 14.98 0 0 0-3.715 3.712 16.019 16.019 0 0 0-1.849 3.68c-1.255 3.464-1.618 7.588-1.717 10.459H21.497c-.099-2.87-.478-6.995-1.716-10.46a16.012 16.012 0 0 0-1.85-3.679 14.98 14.98 0 0 0-3.714-3.712 18.16 18.16 0 0 0-.925-.627C17.238 9.156 26.995 3.3 38.04 3.3zm34.703 21.2c-.33 2.128-2.378 3.316-3.666 3.58a3.171 3.171 0 0 1-1.42-.033c-.56-.116-1.337-.264-2.211.148-2.757 1.238-3.055 5.956-1.024 16.251-1.04 3.052-2.344 3.283-3.335 3.399H15.01c-.99-.116-2.31-.347-3.334-3.399 2.03-10.295 1.733-15.013-1.024-16.25-.875-.397-1.651-.248-2.212-.15a3.175 3.175 0 0 1-1.42.034c-1.288-.28-3.335-1.452-3.665-3.58-.314-1.997 1.172-3.531 1.172-3.547.842-.842 1.866-1.073 2.493-1.205a5.658 5.658 0 0 1 2.575 0c1.09.248 1.767.726 2.725 1.386a11.713 11.713 0 0 1 2.889 2.887c.61.908 1.09 1.898 1.453 2.92 1.337 3.745 1.552 8.497 1.552 10.988 0 .908.742 1.65 1.65 1.65h36.321c.908 0 1.651-.742 1.651-1.65 0-2.507.215-7.259 1.552-11.004a13.035 13.035 0 0 1 1.453-2.92 11.713 11.713 0 0 1 2.89-2.887c.94-.66 1.634-1.139 2.707-1.386a6.24 6.24 0 0 1 2.592 0c.627.132 1.65.363 2.493 1.204.032.033 1.518 1.568 1.22 3.564z" fill="#FFF" fill-rule="nonzero"/></svg>
