<svg width="68" height="66" xmlns="http://www.w3.org/2000/svg"><path d="M65.276 22.65L44.042 1.75A6.094 6.094 0 0 0 39.738 0c-1.63 0-3.158.621-4.304 1.75L1.777 34.876A5.903 5.903 0 0 0 0 39.114c0 1.604.631 3.109 1.777 4.237l2.619 2.577.001.001 17.597 17.32h-2.436c-.772 0-1.397.616-1.397 1.376 0 .76.625 1.375 1.397 1.375h27.938c.772 0 1.397-.616 1.397-1.375 0-.76-.625-1.375-1.397-1.375h-14.86l32.64-32.128a5.932 5.932 0 0 0 0-8.473zM63.3 29.177L29.644 62.306a3.296 3.296 0 0 1-2.324.944h-.01a3.295 3.295 0 0 1-2.324-.944L7.36 44.956l32.322-31.815a1.36 1.36 0 0 0 0-1.944 1.413 1.413 0 0 0-1.976 0L5.384 43.012l-1.631-1.606a3.192 3.192 0 0 1-.959-2.292c0-.87.34-1.683.959-2.292L37.409 3.694a3.296 3.296 0 0 1 2.33-.944c.882 0 1.71.335 2.328.944l7.557 7.438-32.323 31.816a1.36 1.36 0 0 0 0 1.945c.273.268.63.402.988.402s.715-.134.988-.403L51.6 13.077l11.7 11.517a3.21 3.21 0 0 1 0 4.584z" fill="#FFF" fill-rule="nonzero"/></svg>
