<svg width="67" height="50" xmlns="http://www.w3.org/2000/svg"><g fill="#FFF" fill-rule="nonzero"><path d="M65.784 19.57A1.364 1.364 0 0 0 64.68 19H1.377c-.434 0-.844.211-1.106.566-.259.358-.339.82-.212 1.246l7.079 24.166C8.018 47.982 10.669 50 13.73 50h38.598c3.06 0 5.711-2.018 6.589-5.02l7.079-24.165c.127-.426.047-.89-.212-1.246zm-9.5 24.6c-.532 1.8-2.12 3.012-3.959 3.012H13.73c-1.839 0-3.427-1.212-3.955-3.013L3.227 21.82h59.604l-6.548 22.35z"/><path d="M29.318.182a1.416 1.416 0 0 0-1.914.512l-11.208 19.25a1.363 1.363 0 0 0 .524 1.875c.219.123.457.181.695.181.485 0 .959-.247 1.22-.693l11.207-19.25a1.363 1.363 0 0 0-.524-1.875zM49.857 19.943L38.652.693a1.419 1.419 0 0 0-1.913-.51 1.359 1.359 0 0 0-.524 1.875L47.42 21.307c.26.446.734.693 1.218.693.238 0 .477-.058.695-.181a1.359 1.359 0 0 0 .524-1.876z"/></g></svg>
