<svg width="65" height="65" xmlns="http://www.w3.org/2000/svg"><g fill="#FFF" fill-rule="nonzero"><path d="M57.462 17l7.42 7.414-40.448 40.414-7.42-7.414.708-.707c1.325-1.324 1.708-2.287 1.708-4.293 0-4.056-2.946-7-7.006-7-2.007 0-2.971.383-4.296 1.707l-.708.707L0 40.414 40.448 0l7.42 7.414-.708.707c-1.325 1.324-1.708 2.287-1.708 4.293 0 4.056 2.946 7 7.006 7 2.007 0 2.971-.383 4.296-1.707l.708-.707zM20.077 56.925l4.457 4.562L47.76 38.272l-3.017-3.151 1.415-1.414 2.858 2.856L61.403 24.38 57.02 20.12c-1.423 1.192-2.38 1.293-4.563 1.293-5.136 0-9.008-3.869-9.008-9 0-2.181.101-3.353 1.294-4.774l-4.396-4.396-12.223 12.551 3.022 2.912-1.415 1.414-2.9-2.774L3.31 40.377l4.279 4.317c1.423-1.192 2.653-1.28 4.835-1.28 5.136 0 9.008 3.869 9.008 9 0 2.181-.162 3.09-1.355 4.511z"/><path d="M36.292 27.122l-5.266-5.262L32.887 20l5.267 5.262zM43.297 34.12l-5.265-5.26 1.86-1.86 5.266 5.26z"/></g></svg>
