<svg width="1440" height="768" xmlns="http://www.w3.org/2000/svg" xmlns:xlink="http://www.w3.org/1999/xlink"><defs><rect id="b" y="8" width="137" height="40" rx="20"/><filter x="-1.5%" y="-2.5%" width="102.9%" height="110%" filterUnits="objectBoundingBox" id="a"><feOffset dy="1" in="SourceAlpha" result="shadowOffsetOuter1"/><feGaussianBlur stdDeviation=".5" in="shadowOffsetOuter1" result="shadowBlurOuter1"/><feColorMatrix values="0 0 0 0 0.855096726 0 0 0 0 0.226643735 0 0 0 0 0.158964182 0 0 0 1 0" in="shadowBlurOuter1"/></filter><linearGradient x1=".3866%" y1="50.3866%" x2="99.6134%" y2="50.3866%" id="c"><stop stop-color="#F7AB42" offset="0%"/><stop stop-color="#FBA093" offset="100%"/></linearGradient></defs><g fill="none" fill-rule="evenodd"><g transform="translate(1184 42)"><use fill="#000" filter="url(#a)" xlink:href="#b"/><use fill="#FFF" xlink:href="#b"/></g><text font-family="OpenSans-SemiBold, Open Sans" font-size="14" font-weight="500" fill="#F06E55" transform="translate(1184 42)"><tspan x="47" y="15">Войти</tspan></text><path d="M1439 784.1197h-437.0492c-31.5886 21.1693-58.6525-.3126-81.1918-64.4458-33.8089-96.1999-26.9171-94.1454-36.017-176.4254-6.9758-63.075-21.7729-89.755-46.4532-107.2847-67.1367-47.6852-98.2696-32.5844-165.2344-62.8474-91.9982-41.5763-225.5122-194.431-212.12-333.9549 8.928-93.0159 150.1972-20.3343 423.8076 218.0447 125.3166 62.3934 220.6086 112.0675 285.876 149.0223 97.901 55.4324 120.5478 80.424 170.0168 137.02 49.469 56.596 80.977 141.3264 80.977 149.7398 0 5.609 5.7961 28.0889 17.3882 67.4397v23.6917z" fill="#D8D8D8" opacity=".3586"/><path d="M1443 768c-31.4726-.2782-55.6436-.2782-72.513 0-41.4713.684-81.4232 0-140.3965-17.3883-104.0082-30.6668-175.0258-84.852-225.4777-132.9969-130.7538-124.775-69.3483-265.2955-250.1911-378.0993-27.9258-17.4192-65.3503-21.7021-104.9697-35.645-29.0652-10.2287-59.3315-24.2322-88.016-43.7592-22.504-15.3195-44.0343-34.0385-63.2475-57.0015C473.2996 73.3632 451.5701 38.9933 433 0h1010" fill="url(#c)"/></g></svg>