<svg width="768" height="1024" xmlns="http://www.w3.org/2000/svg"><defs><linearGradient x1=".3866%" y1="50.3866%" x2="99.6134%" y2="50.3866%" id="a"><stop stop-color="#F7AB42" offset="0%"/><stop stop-color="#FBA093" offset="100%"/></linearGradient></defs><g fill="none" fill-rule="evenodd"><path d="M319.139-3.137c-3.7243 113.9298 30.4345 202.6404 102.4766 266.1316 108.063 95.2368 145.805 242.2775 153.4567 314.8958 2.9308 27.8145 23.8529 100.0405 66.1384 147.9805 20.8761 23.6676 63.5433 49.262 128.0015 76.7834V-1.9624" fill="#D8D8D8" opacity=".36"/><path d="M551 708.9146c-14.8753-2.3829-21.285-5.5478-53.527-35.9553-125.5133-118.3713-60.3537-289.0686-217.7407-411.9809-24.3037-18.98-56.8741-23.6468-91.3548-38.8391-25.2953-11.1453-51.636-26.4036-76.6001-47.6804-19.585-16.6923-38.3229-37.0888-55.044-62.1095C35.0726 79.9373 16.1614 42.4874 0 0h551c9.9169 474.1983 9.9169 710.5032 0 708.9146z" transform="translate(217)" fill="url(#a)"/></g></svg>