<?xml version="1.0" encoding="UTF-8"?>
<svg width="768" height="1024" viewBox="0 0 768 1024" version="1.1" xmlns="http://www.w3.org/2000/svg" xmlns:xlink="http://www.w3.org/1999/xlink">
    <defs>
        <linearGradient x1="0.386639031%" y1="50.386639%" x2="99.613361%" y2="50.386639%" id="linearGradient-1">
            <stop stop-color="#F7AB42" offset="0%"></stop>
            <stop stop-color="#FBA093" offset="100%"></stop>
        </linearGradient>
    </defs>
    <g id="Goody_Autorisation-Copy" stroke="none" stroke-width="1" fill="none" fill-rule="evenodd">
        <path d="M319.138973,-3.13708495 C315.414662,110.792826 349.573524,199.503384 421.615562,262.994587 C529.678619,358.231392 567.420633,505.272099 575.072296,577.89038 C578.00306,605.704862 598.925181,677.930905 641.210738,725.870867 C662.086805,749.538472 704.753961,775.132964 769.212206,802.654345 L769.212206,-1.96236519" id="Path-3" fill="#D8D8D8" opacity="0.36"></path>
        <g id="Strelki" transform="translate(217.000000, 0.000000)" fill="url(#linearGradient-1)">
            <path d="M551,708.914615 C536.124689,706.531734 529.715055,703.366753 497.472966,672.959299 C371.959735,554.588008 437.119306,383.890667 279.73233,260.978438 C255.428603,241.998308 222.85816,237.331625 188.377548,222.1393 C163.082162,210.99403 136.741496,195.73565 111.777389,174.458872 C92.1923253,157.766625 73.4545138,137.37014 56.7333777,112.34942 C35.0726199,79.9372823 16.161494,42.4874757 0,0 L551,0 C560.916874,474.19833 560.916874,710.503202 551,708.914615 Z" id="Path-9"></path>
        </g>
    </g>
</svg>