<svg width="768" height="1024" xmlns="http://www.w3.org/2000/svg"><defs><linearGradient x1=".3866%" y1="50.3866%" x2="99.6134%" y2="50.3866%" id="a"><stop stop-color="#F7AB42" offset="0%"/><stop stop-color="#FBA093" offset="100%"/></linearGradient></defs><g fill="none" fill-rule="evenodd"><path d="M229.5275-145.0817c-4.381 110.1293 35.8013 195.8804 120.5472 257.2536 127.1187 92.0597 171.5161 234.1952 180.517 304.391 3.4476 26.8865 28.0591 96.7031 77.8013 143.0438 24.5573 22.8781 74.7483 47.6188 150.573 74.222v-777.7749" fill="#D8D8D8" opacity=".36"/><path d="M768 708.9146c-14.8753-2.3829-21.285-5.5478-53.527-35.9553-125.5133-118.3713-60.3537-289.0686-217.7407-411.9809-24.3037-18.98-56.8741-23.6468-91.3548-38.8391-25.2953-11.1453-51.636-26.4036-76.6001-47.6804-19.585-16.6923-38.3229-37.0888-55.044-62.1095C252.0726 79.9373 233.1614 42.4874 217 0h551c9.9169 474.1983 9.9169 710.5032 0 708.9146z" fill="url(#a)"/></g></svg>