<svg width="1440" height="768" xmlns="http://www.w3.org/2000/svg"><defs><linearGradient x1=".3866%" y1="50.3866%" x2="99.6134%" y2="50.3866%" id="a"><stop stop-color="#F7AB42" offset="0%"/><stop stop-color="#FBA093" offset="100%"/></linearGradient></defs><g fill="none" fill-rule="evenodd"><path d="M1414 772.4253H962.2188c-32.6534 20.5323-60.6296-.3032-83.9286-62.5063-34.9485-93.3047-27.8244-91.312-37.231-171.1158-7.211-61.1768-22.5068-87.0539-48.019-104.056-69.3998-46.25-101.5821-31.6038-170.8042-60.956-95.0992-40.325-233.1138-188.5797-219.2702-323.9045 9.229-90.2166 155.2602-19.7224 438.0934 211.4826 129.5407 60.5156 228.0448 108.6948 295.5122 144.5375 101.201 53.764 124.6112 78.0035 175.7477 132.8964 51.1366 54.8928 83.7066 137.0731 83.7066 145.2333 0 5.4402 5.9915 27.2435 17.9743 65.4101v22.9787z" fill="#D8D8D8" opacity=".3586"/><path d="M1440 768c-33.9188-.2782-59.9684-.2782-78.1488 0-44.6947.684-87.7517 0-151.3086-17.3883-112.092-30.6668-188.6292-84.852-243.0024-132.9969-140.9165-124.775-74.7383-265.2955-269.6367-378.0993-30.0963-17.4192-70.4295-21.7021-113.1282-35.645-31.3243-10.2287-63.943-24.2322-94.857-43.7592-24.253-15.3195-47.4567-34.0385-68.1631-57.0015C394.9318 73.3632 371.5134 38.9933 351.5 0H1440" fill="url(#a)"/></g></svg>