<?xml version="1.0" encoding="UTF-8"?>
<svg width="1440" height="768" viewBox="0 0 1440 768" version="1.1" xmlns="http://www.w3.org/2000/svg" xmlns:xlink="http://www.w3.org/1999/xlink">
    <!-- Generator: Sketch 49.1 (51147) - http://www.bohemiancoding.com/sketch -->
    <defs>
        <linearGradient x1="0.386639031%" y1="50.386639%" x2="99.613361%" y2="50.386639%" id="linearGradient-1">
            <stop stop-color="#F7AB42" offset="0%"></stop>
            <stop stop-color="#FBA093" offset="100%"></stop>
        </linearGradient>
    </defs>
    <g id="Goody_Autorisation-Copy" stroke="none" stroke-width="1" fill="none" fill-rule="evenodd">
        <path d="M1414,772.425294 L962.218839,772.425294 C929.565426,792.957551 901.589213,772.122115 878.290198,709.918986 C843.341676,616.614294 850.465755,618.606932 841.05917,538.803155 C833.848182,477.626436 818.55236,451.749295 793.040147,434.747188 C723.6404,388.497108 691.458055,403.1434 622.236019,373.791136 C527.136768,333.466139 389.122244,185.211545 402.9658,49.8866861 C412.194837,-40.3298866 558.225961,30.1643252 841.05917,261.369321 C970.599944,321.884923 1069.10401,370.064085 1136.57138,405.906807 C1237.77243,459.670891 1261.18258,483.910343 1312.31914,538.803155 C1363.4557,593.695967 1396.02573,675.876322 1396.02573,684.036535 C1396.02573,689.476677 1402.01716,711.280037 1414,749.446616 L1414,772.425294 Z" id="Path-10" fill="#D8D8D8" opacity="0.358582428"></path>
        <path d="M1440,768 C1406.08125,767.721792 1380.03165,767.721792 1361.85119,768 C1317.1565,768.683945 1274.09946,768 1210.54261,750.611724 C1098.45057,719.944888 1021.91335,665.759776 967.540186,617.614822 C826.62373,492.839738 892.801894,352.319325 697.90346,239.515454 C667.807206,222.096258 627.473956,217.813365 584.775269,203.870464 C553.451005,193.641786 520.83233,179.638262 489.918302,160.111295 C465.665354,144.791826 442.461591,126.072758 421.755155,103.109753 C394.931794,73.3632041 371.513409,38.9932865 351.5,0 L1440,0" id="Path-9" fill="url(#linearGradient-1)"></path>
    </g>
</svg>