<?xml version="1.0" encoding="UTF-8"?>
<svg width="1440px" height="768px" viewBox="0 0 1440 768" version="1.1" xmlns="http://www.w3.org/2000/svg" xmlns:xlink="http://www.w3.org/1999/xlink" style="background: #F9F9F9;">
    <!-- Generator: Sketch 49.1 (51147) - http://www.bohemiancoding.com/sketch -->
    <title>Goody_Registration1 Copy</title>
    <desc>Created with Sketch.</desc>
    <defs>
        <linearGradient x1="0.386639031%" y1="50.386639%" x2="99.613361%" y2="50.386639%" id="linearGradient-1">
            <stop stop-color="#F7AB42" offset="0%"></stop>
            <stop stop-color="#FBA093" offset="100%"></stop>
        </linearGradient>
    </defs>
    <g id="Goody_Registration1-Copy" stroke="none" stroke-width="1" fill="none" fill-rule="evenodd">
        <g id="bg" transform="translate(433.000000, 0.000000)">
            <path d="M984,772.425294 L546.950833,772.425294 C515.362206,792.957551 488.29826,772.122115 465.758996,709.918986 C431.9501,616.614294 438.841871,618.606932 429.742023,538.803155 C422.766177,477.626436 407.969131,451.749295 383.288837,434.747188 C316.152126,388.497108 285.019205,403.1434 218.054409,373.791136 C126.056222,333.466139 -7.45782961,185.211545 5.93430642,49.8866861 C14.8623971,-40.3298866 156.131636,30.1643252 429.742023,261.369321 C555.058641,321.884923 650.350623,370.064085 715.617968,405.906807 C813.518985,459.670891 836.165757,483.910343 885.634819,538.803155 C935.103881,593.695967 966.611851,675.876322 966.611851,684.036535 C966.611851,689.476677 972.407901,711.280037 984,749.446616 L984,772.425294 Z" id="Path-10" fill="#D8D8D8" opacity="0.358582428"></path>
            <path d="M1010,768 C978.527392,767.721792 954.356424,767.721792 937.487095,768 C896.015676,768.683945 856.063803,768 797.090524,750.611724 C693.082292,719.944888 622.064754,665.759776 571.61285,617.614822 C440.858951,492.839738 502.264504,352.319325 321.421676,239.515454 C293.495892,222.096258 256.071379,217.813365 216.452018,203.870464 C187.386784,193.641786 157.12049,179.638262 128.435907,160.111295 C105.932023,144.791826 84.4016598,126.072758 65.1885227,103.109753 C40.2995974,73.3632041 18.5700898,38.9932865 0,0 L1010,0" id="Path-9" fill="url(#linearGradient-1)"></path>
        </g>
    </g>
</svg>