<?xml version="1.0" encoding="UTF-8"?>
<svg width="1440" height="768" viewBox="0 0 1440 768" version="1.1" xmlns="http://www.w3.org/2000/svg" xmlns:xlink="http://www.w3.org/1999/xlink">
    <!-- Generator: Sketch 49.1 (51147) - http://www.bohemiancoding.com/sketch -->
    <defs>
        <rect id="path-1" x="0" y="8" width="137" height="40" rx="20"></rect>
        <filter x="-1.5%" y="-2.5%" width="102.9%" height="110.0%" filterUnits="objectBoundingBox" id="filter-2">
            <feOffset dx="0" dy="1" in="SourceAlpha" result="shadowOffsetOuter1"></feOffset>
            <feGaussianBlur stdDeviation="0.5" in="shadowOffsetOuter1" result="shadowBlurOuter1"></feGaussianBlur>
            <feColorMatrix values="0 0 0 0 0.855096726   0 0 0 0 0.226643735   0 0 0 0 0.158964182  0 0 0 1 0" type="matrix" in="shadowBlurOuter1"></feColorMatrix>
        </filter>
        <linearGradient x1="0.386639031%" y1="50.386639%" x2="99.613361%" y2="50.386639%" id="linearGradient-3">
            <stop stop-color="#F7AB42" offset="0%"></stop>
            <stop stop-color="#FBA093" offset="100%"></stop>
        </linearGradient>
    </defs>
    <g id="Goody_Registration1-1-Copy" stroke="none" stroke-width="1" fill="none" fill-rule="evenodd">
        <g id="Кнопка_войти" transform="translate(1184.000000, 42.000000)">
            <g id="Rectangle-6-Copy-7">
                <use fill="black" fill-opacity="1" filter="url(#filter-2)" xlink:href="#path-1"></use>
                <use fill="#FFFFFF" fill-rule="evenodd" xlink:href="#path-1"></use>
            </g>
            <text id="Войти" font-family="OpenSans-SemiBold, Open Sans" font-size="14" font-weight="500" line-spacing="56" fill="#F06E55">
                <tspan x="47" y="15">Войти</tspan>
            </text>
        </g>
        <path d="M1439,784.119674 L1001.95083,784.119674 C970.362206,805.289023 943.29826,783.807088 920.758996,719.673869 C886.9501,623.474041 893.841871,625.528508 884.742023,543.248512 C877.766177,480.173551 862.969131,453.493473 838.288837,435.96381 C771.152126,388.278644 740.019205,403.379394 673.054409,373.116362 C581.056222,331.540128 447.54217,178.685367 460.934306,39.1615347 C469.862397,-53.8543533 611.131636,18.8272119 884.742023,257.20623 C1010.05864,319.59956 1105.35062,369.273666 1170.61797,406.228546 C1268.51898,461.660867 1291.16576,486.652441 1340.63482,543.248512 C1390.10388,599.844584 1421.61185,684.5749 1421.61185,692.988315 C1421.61185,698.597259 1427.4079,721.077152 1439,760.427996 L1439,784.119674 Z" id="Path-10" fill="#D8D8D8" opacity="0.358582428"></path>
        <path d="M1443,768 C1411.52739,767.721792 1387.35642,767.721792 1370.48709,768 C1329.01568,768.683945 1289.0638,768 1230.09052,750.611724 C1126.08229,719.944888 1055.06475,665.759776 1004.61285,617.614822 C873.858951,492.839738 935.264504,352.319325 754.421676,239.515454 C726.495892,222.096258 689.071379,217.813365 649.452018,203.870464 C620.386784,193.641786 590.12049,179.638262 561.435907,160.111295 C538.932023,144.791826 517.40166,126.072758 498.188523,103.109753 C473.299597,73.3632041 451.57009,38.9932865 433,0 L1443,0" id="Path-9" fill="url(#linearGradient-3)"></path>
    </g>
</svg>