<?xml version="1.0" encoding="UTF-8"?>
<svg width="768" height="1024" viewBox="0 0 768 1024" version="1.1" xmlns="http://www.w3.org/2000/svg" xmlns:xlink="http://www.w3.org/1999/xlink">
    <!-- Generator: Sketch 49.1 (51147) - http://www.bohemiancoding.com/sketch -->
    <title>Goody_Autorisation</title>
    <desc>Created with Sketch.</desc>
    <defs>
        <linearGradient x1="0.386639031%" y1="50.386639%" x2="99.613361%" y2="50.386639%" id="linearGradient-1">
            <stop stop-color="#F7AB42" offset="0%"></stop>
            <stop stop-color="#FBA093" offset="100%"></stop>
        </linearGradient>
    </defs>
    <g id="Goody_Autorisation" stroke="none" stroke-width="1" fill="none" fill-rule="evenodd">
        <path d="M229.527496,-145.081684 C225.146444,-34.9524462 265.328836,50.7987491 350.074672,112.171902 C477.193426,204.23163 521.590818,346.367096 530.591765,416.56285 C534.039336,443.449448 558.650836,513.266047 608.392974,559.606745 C632.950299,582.484804 683.141325,607.225471 758.966052,633.828745 L758.966052,-143.946153" id="Path-3" fill="#D8D8D8" opacity="0.36" transform="translate(494.085261, 244.373530) rotate(-360.000000) translate(-494.085261, -244.373530) "></path>
        <path d="M768,708.914615 C753.124689,706.531734 746.715055,703.366753 714.472966,672.959299 C588.959735,554.588008 654.119306,383.890667 496.73233,260.978438 C472.428603,241.998308 439.85816,237.331625 405.377548,222.1393 C380.082162,210.99403 353.741496,195.73565 328.777389,174.458872 C309.192325,157.766625 290.454514,137.37014 273.733378,112.34942 C252.07262,79.9372823 233.161494,42.4874757 217,4.4408921e-16 L768,4.4408921e-16 C777.916874,474.19833 777.916874,710.503202 768,708.914615 Z" id="Path-9" fill="url(#linearGradient-1)"></path>
    </g>
</svg>