
<svg width="100%" height="100%" viewBox="0 0 320 93" xmlns="http://www.w3.org/2000/svg" xmlns:xlink="http://www.w3.org/1999/xlink">

    <defs>
        <linearGradient x1="6.37551839%" y1="73.6334441%" x2="93.9875137%" y2="27.0493199%" id="linearGradient-1">
            <stop stop-color="#F7AB42" offset="0%"></stop>
            <stop stop-color="#FBA093" offset="100%"></stop>
        </linearGradient>
    </defs>
    <g id="Mobile" stroke="none" stroke-width="1" fill="none" fill-rule="evenodd">
        <g id="Goody_mobile_registration">
            <g id="bg" transform="translate(-14.000000, -66.000000)">
                <path d="M334,61.3021004 L334,155.749813 L14,155.749813 L14,89.0760617 C38.3984004,99.3033213 72.125075,97.5107569 115.180024,83.6983683 C179.762447,62.9797855 204.102319,49.2934073 261.683729,52.4528636 C300.071336,54.5591677 324.17676,57.5089134 334,61.3021004 Z" id="Path-2" fill="#D8D8D8" opacity="0.36" transform="translate(174.000000, 103.874907) rotate(-180.000000) translate(-174.000000, -103.874907) "></path>
                <path d="M328.701082,150.058514 C324.702754,168.869172 324.995519,167.491821 323.259324,175.659976 C322.977811,176.984389 323.150503,176.171936 322.429386,179.564528 C321.956933,181.78724 321.794403,182.504975 321.680318,183.088614 C321.635956,183.315561 321.584821,183.537891 321.517628,183.854009 C290.095681,182.099364 262.188696,177.419545 238.699334,172.521555 C145.333528,153.052964 128.20288,109.708739 17.3745386,98.5373738 C16.6116387,98.4604744 13.2175126,98.5366694 12.5667799,98.2384817 C12.3716476,98.1490654 12.7159017,97.6510146 12.8187193,97.0532001 C13.0840846,95.5102818 13.6942289,92.9636743 13.7772061,92.5438741 C14.3331205,89.7313792 15.1415519,85.8875902 16.093473,81.4416582 C16.953997,77.4225948 17.9317797,72.9114651 18.9462794,68.2252962 C19.775981,64.3927453 20.5830076,60.53499 21.4072173,56.6474937 C21.8672884,54.4775063 22.3805777,52.2265858 22.7907761,50.1383615 C23.692079,45.5500392 24.817017,41.0641028 25.525017,37.2747694 C25.7215944,36.2226544 25.9312562,35.3043791 26.1008204,34.3607904 C26.1617915,34.0214986 26.4091339,33.5566326 26.3799176,33.2527784 C26.34471,32.8866138 23.8363527,32.712127 28.8540456,33.7786705 C33.8717385,34.8452141 38.1660194,35.7579917 48.2251295,37.8961215 C65.9897021,41.672098 95.4453035,47.6206201 92.0010235,47.200975 C82.5449959,46.0488691 165.024975,63.5805298 339.440961,99.7959574 C334.946595,120.763889 331.366635,137.518074 328.701082,150.058514 Z" id="Path-9" fill="url(#linearGradient-1)" transform="translate(175.974459, 108.519913) rotate(-12.000000) translate(-175.974459, -108.519913) "></path>
            </g>
        </g>
    </g>
</svg>