<svg width="320" height="56" xmlns="http://www.w3.org/2000/svg"><defs><linearGradient x1="6.3755%" y1="73.6334%" x2="93.9875%" y2="27.0493%" id="a"><stop stop-color="#F7AB42" offset="0%"/><stop stop-color="#FBA093" offset="100%"/></linearGradient></defs><g fill="none" fill-rule="evenodd"><path d="M0 43.6755V-51h320v66.8345c-24.3984-10.2519-58.125-8.455-101.18 5.3907-64.5824 20.7685-88.9223 34.488-146.5037 31.3208C33.9287 50.4347 9.8233 47.4778 0 43.6755z" fill="#D8D8D8" opacity=".36"/><path d="M329.258 150.1785l-5.443 25.6212-.83 3.9075c-.4726 2.2244-.6352 2.9427-.7493 3.5268-.0444.2271-.0955.4496-.1627.766-31.4284-1.756-59.3411-6.4394-82.8353-11.3412-93.385-19.4835-110.519-62.8611-221.3701-74.041-.763-.077-4.1579-.0008-4.8088-.2992-.1951-.0895.1492-.588.252-1.1862.2654-1.5441.8757-4.0927.9587-4.5128.556-2.8147 1.3646-6.6614 2.3167-11.1108.8608-4.0221 1.8387-8.5367 2.8534-13.2265.83-3.8355 1.6371-7.6962 2.4615-11.5867.4601-2.1717.9735-4.4243 1.3838-6.5141.9015-4.5919 2.0267-9.0813 2.7348-12.8735.1966-1.053.4063-1.972.576-2.9163.061-.3395.3083-.8047.2791-1.1088-.0352-.3665-2.544-.541 2.4746.5263l19.375 4.1206c17.7683 3.7789 47.23 9.732 43.785 9.312C83.0514 46.0888 165.5483 63.634 340 99.8773c-4.4953 20.984-8.076 37.7511-10.742 50.3012z" fill="url(#a)" transform="rotate(-12 -320.4898 123.6006)"/></g></svg>