<svg width="17" height="15" viewBox="0 0 17 15" version="1.1" xmlns="http://www.w3.org/2000/svg" xmlns:xlink="http://www.w3.org/1999/xlink">
<title>Shape</title>
<desc>Created using Figma</desc>
<g id="Canvas" transform="translate(-16143 -3728)">
<rect x="16143" y="3728" width="17" height="15" fill="#FFFFFF"/>
<clipPath id="clip-0" clip-rule="evenodd">
<path d="M 15719 3114L 17159 3114L 17159 4039L 15719 4039L 15719 3114Z" fill="#FFFFFF"/>
</clipPath>
<g id="Goody_profil_new" clip-path="url(#clip-0)">
<path d="M 15719 3114L 17159 3114L 17159 4039L 15719 4039L 15719 3114Z" fill="#F9F9F9"/>
<g id="Group">
<g id="Rectangle 10" filter="url(#filter0_d)">
<use xlink:href="#path0_fill" transform="translate(15840 3234)" fill="#FFFFFF"/>
</g>
</g>
<g id="&#208;&#161;&#208;&#190;&#208;&#177;&#209;&#139;&#209;&#130;&#208;&#184;&#208;&#181;3">
<g id="Rectangle 10 Copy" filter="url(#filter1_d)">
<use xlink:href="#path1_fill" transform="translate(16134 3340)" fill="#FFFFFF"/>
</g>
<g id="like+comment">
<g id="noun_635590_cc">
<g id="Shape">
<use xlink:href="#path2_fill" transform="translate(16143 3728)" fill="url(#paint2_linear)"/>
</g>
</g>
</g>
</g>
</g>
</g>
<defs>
<filter id="filter0_d" filterUnits="userSpaceOnUse" x="15836" y="3232" width="1208" height="742" color-interpolation-filters="sRGB">
<feFlood flood-opacity="0" result="BackgroundImageFix"/>
<feColorMatrix in="SourceAlpha" type="matrix" values="0 0 0 0 0 0 0 0 0 0 0 0 0 0 0 0 0 0 255 0"/>
<feOffset dx="0" dy="2"/>
<feGaussianBlur stdDeviation="2"/>
<feColorMatrix type="matrix" values="0 0 0 0 0.588235 0 0 0 0 0.584314 0 0 0 0 0.584314 0 0 0 0.5 0"/>
<feBlend mode="normal" in2="BackgroundImageFix" result="effect1_dropShadow"/>
<feBlend mode="normal" in="SourceGraphic" in2="effect1_dropShadow" result="shape"/>
</filter>
<filter id="filter1_d" filterUnits="userSpaceOnUse" x="16130" y="3338" width="268" height="448" color-interpolation-filters="sRGB">
<feFlood flood-opacity="0" result="BackgroundImageFix"/>
<feColorMatrix in="SourceAlpha" type="matrix" values="0 0 0 0 0 0 0 0 0 0 0 0 0 0 0 0 0 0 255 0"/>
<feOffset dx="0" dy="2"/>
<feGaussianBlur stdDeviation="2"/>
<feColorMatrix type="matrix" values="0 0 0 0 0.588235 0 0 0 0 0.584314 0 0 0 0 0.584314 0 0 0 0.5 0"/>
<feBlend mode="normal" in2="BackgroundImageFix" result="effect1_dropShadow"/>
<feBlend mode="normal" in="SourceGraphic" in2="effect1_dropShadow" result="shape"/>
</filter>
<linearGradient id="paint2_linear" x1="0" y1="0" x2="1" y2="0" gradientUnits="userSpaceOnUse" gradientTransform="matrix(0 14.6499 -16.729 0 8.5 0)">
<stop offset="0" stop-color="#F0908C"/>
<stop offset="1" stop-color="#F7C063"/>
</linearGradient>
<path id="path0_fill" fill-rule="evenodd" d="M 0 5.99998C 0 2.68627 2.68629 0 6 0L 1194 0C 1197.31 0 1200 2.68629 1200 6L 1200 728C 1200 731.314 1197.31 734 1194 734L 5.99999 734C 2.68629 734 0 731.314 0 728L 0 5.99998Z"/>
<path id="path1_fill" fill-rule="evenodd" d="M 0 5.99999C 0 2.68629 2.68629 0 6 0L 254 0C 257.314 0 260 2.68629 260 6L 260 434C 260 437.314 257.314 440 254 440L 6.00001 440C 2.6863 440 0 437.314 0 434L 0 5.99999Z"/>
<path id="path2_fill" d="M 8.5003 14.8872C 22.9263 5.11783 15.2621 0 12.3317 0C 9.40197 0 8.5003 2.32683 8.5003 2.32683C 8.5003 2.32683 7.59795 0 4.66888 0C 1.7371 0 -5.92607 5.11783 8.5003 14.8872Z"/>
</defs>
</svg>
