<svg width="16" height="16" viewBox="0 0 16 16" version="1.1" xmlns="http://www.w3.org/2000/svg" xmlns:xlink="http://www.w3.org/1999/xlink">
<title>Group</title>
<desc>Created using Figma</desc>
<g id="Canvas" transform="translate(-16249 -3727)">
<rect x="16249" y="3727" width="16" height="16" fill="#FFFFFF"/>
<clipPath id="clip-0" clip-rule="evenodd">
<path d="M 15719 3114L 17159 3114L 17159 4039L 15719 4039L 15719 3114Z" fill="#FFFFFF"/>
</clipPath>
<g id="Goody_profil_new" clip-path="url(#clip-0)">
<path d="M 15719 3114L 17159 3114L 17159 4039L 15719 4039L 15719 3114Z" fill="#F9F9F9"/>
<g id="Group">
<g id="Rectangle 10" filter="url(#filter0_d)">
<use xlink:href="#path0_fill" transform="translate(15840 3234)" fill="#FFFFFF"/>
</g>
</g>
<g id="&#208;&#161;&#208;&#190;&#208;&#177;&#209;&#139;&#209;&#130;&#208;&#184;&#208;&#181;3">
<g id="Rectangle 10 Copy" filter="url(#filter1_d)">
<use xlink:href="#path1_fill" transform="translate(16134 3340)" fill="#FFFFFF"/>
</g>
<g id="like+comment">
<g id="Group">
<g id="Shape">
<use xlink:href="#path2_fill" transform="translate(16249 3731.94)" fill="#D6D5D5"/>
</g>
<g id="Shape">
<use xlink:href="#path3_fill" transform="matrix(0.987688 0.156434 -0.156434 0.987688 16251.3 3736.89)" fill="#D6D5D5"/>
</g>
<g id="Shape">
<use xlink:href="#path4_fill" transform="translate(16255.5 3727.27)" fill="#D6D5D5"/>
</g>
<g id="Path 2">
<use xlink:href="#path5_fill" transform="translate(16254.8 3731.89)" fill="#D6D5D5"/>
</g>
</g>
</g>
</g>
</g>
</g>
<defs>
<filter id="filter0_d" filterUnits="userSpaceOnUse" x="15836" y="3232" width="1208" height="742" color-interpolation-filters="sRGB">
<feFlood flood-opacity="0" result="BackgroundImageFix"/>
<feColorMatrix in="SourceAlpha" type="matrix" values="0 0 0 0 0 0 0 0 0 0 0 0 0 0 0 0 0 0 255 0"/>
<feOffset dx="0" dy="2"/>
<feGaussianBlur stdDeviation="2"/>
<feColorMatrix type="matrix" values="0 0 0 0 0.588235 0 0 0 0 0.584314 0 0 0 0 0.584314 0 0 0 0.5 0"/>
<feBlend mode="normal" in2="BackgroundImageFix" result="effect1_dropShadow"/>
<feBlend mode="normal" in="SourceGraphic" in2="effect1_dropShadow" result="shape"/>
</filter>
<filter id="filter1_d" filterUnits="userSpaceOnUse" x="16130" y="3338" width="268" height="448" color-interpolation-filters="sRGB">
<feFlood flood-opacity="0" result="BackgroundImageFix"/>
<feColorMatrix in="SourceAlpha" type="matrix" values="0 0 0 0 0 0 0 0 0 0 0 0 0 0 0 0 0 0 255 0"/>
<feOffset dx="0" dy="2"/>
<feGaussianBlur stdDeviation="2"/>
<feColorMatrix type="matrix" values="0 0 0 0 0.588235 0 0 0 0 0.584314 0 0 0 0 0.584314 0 0 0 0.5 0"/>
<feBlend mode="normal" in2="BackgroundImageFix" result="effect1_dropShadow"/>
<feBlend mode="normal" in="SourceGraphic" in2="effect1_dropShadow" result="shape"/>
</filter>
<path id="path0_fill" fill-rule="evenodd" d="M 0 5.99998C 0 2.68627 2.68629 0 6 0L 1194 0C 1197.31 0 1200 2.68629 1200 6L 1200 728C 1200 731.314 1197.31 734 1194 734L 5.99999 734C 2.68629 734 0 731.314 0 728L 0 5.99998Z"/>
<path id="path1_fill" fill-rule="evenodd" d="M 0 5.99999C 0 2.68629 2.68629 0 6 0L 254 0C 257.314 0 260 2.68629 260 6L 260 434C 260 437.314 257.314 440 254 440L 6.00001 440C 2.6863 440 0 437.314 0 434L 0 5.99999Z"/>
<path id="path2_fill" d="M 2.94661 0.0207741C 2.1611 0.0207741 1.42262 0.329856 0.865164 0.889826C 0.307683 1.44984 0 2.19531 0 2.98074C 0 4.24987 0.803631 5.37349 1.9982 5.77712C 2.29863 5.88259 2.61719 5.93714 2.94661 5.93714L 4.91947 5.93714C 5.23789 5.93714 5.53108 5.94522 5.81539 5.9577L 5.81539 0C 5.53068 0.0123402 5.23627 0.0207741 4.91947 0.0207741L 2.94661 0.0207741L 2.94661 0.0207741Z"/>
<path id="path3_fill" d="M 2.67658 0L 0.973768 0.2697C 0.560448 0.335163 0.359395 0.367007 0 0.423929L 0.612507 4.29115C 0.735572 4.93115 1.29665 5.39298 1.94463 5.39298C 2.03151 5.39298 2.11838 5.3857 2.20525 5.36754C 2.93648 5.21839 3.41794 4.50204 3.27676 3.78933L 2.67658 0Z"/>
<path id="path4_fill" d="M 8.72579 0.0412102C 8.60634 -0.0242195 8.46154 -0.00970421 8.34932 0.0703295C 7.53122 0.666654 6.8362 1.21211 6.22081 1.69577C 4.06281 3.39286 2.81259 4.3672 0 4.61978L 0 10.673C 1.4524 10.8018 2.56988 11.1324 3.66154 11.7576C 4.47964 12.2303 5.24706 12.8339 6.22081 13.5976C 6.83258 14.0776 7.53122 14.6267 8.34932 15.2267C 8.41448 15.2703 8.48688 15.2957 8.56291 15.2957C 8.61719 15.2957 8.67512 15.2812 8.72579 15.2558C 8.84887 15.1939 8.9249 15.0667 8.9249 14.9321L 8.9249 0.364852C 8.9249 0.226668 8.84887 0.103 8.72579 0.0412102Z"/>
<path id="path5_fill" fill-rule="evenodd" d="M 0 0.0541685L 0.734283 0L 0.734283 6.03763L 0 5.99564L 0 0.0541685Z"/>
</defs>
</svg>
