<svg width="26" height="22" xmlns="http://www.w3.org/2000/svg"><g fill="#F6AF70" fill-rule="nonzero"><path d="M2.732 15.652c.276.18.566.27.86.27.344 0 .754-.099 1.22-.536.252.58.534 1.08.84 1.514.277.588 2.468 4.866 7.335 4.866 4.869 0 7.048-4.282 7.323-4.868.305-.433.587-.933.838-1.513.483.473.907.581 1.26.581.294 0 .583-.112.86-.291 1.85-1.202 2.806-4.49 2.178-7.457-.789-3.727-3.743-6.31-8.105-7.088l-.071-.012c-1.296-.57-2.81-.884-4.29-.884-1.08 0-2.711.159-4.376.904-4.331.79-7.264 3.368-8.05 7.078-.628 2.968.329 6.235 2.178 7.436zm14.2 3.907a6.56 6.56 0 0 1-3.945 1.288 6.601 6.601 0 0 1-3.874-1.216c-.559-.419.079-.316.079-.316l-.005-.003c.502.112.993.157 1.45.157 1.094 0 1.979-.251 2.343-.373.364.121 1.249.37 2.341.37.477 0 .991-.048 1.517-.171h.003s.624-.153.092.264zm-4.114-3.2c-.574-.35-1.085-.747-1.312-1.016-.007-.01-.137-.183.044-.257a1.48 1.48 0 0 1 .104-.03c.233-.062.643-.123 1.354-.123.57 0 1.181.088 1.51.203.03.013.215.108.084.273a1.117 1.117 0 0 1-.116.114c-.2.182-.559.448-1.209.809a.47.47 0 0 1-.46.027zm5.814-13.982c.018.006.038.01.055.016l.044.013c4.168 1.29 5.42 4.246 5.792 6.007.613 2.895-.446 5.631-1.778 6.496-.12.079-.23.138-.337.138-.146 0-.454-.089-.883-.651l.006-.02-.13-.188c-1.648-2.378-2.939-8.606-3.444-11.335 0-.005-.014-.64.675-.476zM9 2.657c.134-.715 1.057-1.077 1.145-1.111a10.287 10.287 0 0 1 2.826-.393c1.087 0 2.196.187 3.199.53.134.062.675.347.78.921.228 1.28.69 3.679 1.32 6.053.803 3.031 1.548 4.823 2.21 5.873-1.228 3.313-3.472 4.018-5.159 4.018a6.784 6.784 0 0 1-1.502-.174c-.341-.077-.371-.465-.371-.465v-.62c1.713-.906 2.377-1.591 2.204-2.272-.23-.905-1.926-1.003-2.646-1.003-1.071 0-2.328.103-2.54.906-.227.863 1.071 1.78 2.038 2.33v.61c0 .327-.438.524-.468.537-.374.08-.857.153-1.4.153-1.679 0-3.918-.702-5.148-4 .474-.735.972-1.848 1.523-3.527C8.002 8.015 8.73 4.386 9 2.658zM1.478 8.403c.37-1.754 1.614-4.682 5.74-5.98.748-.234.802.556.802.556a76.991 76.991 0 0 1-1.204 5.434c-.538 2.028-1.035 3.434-1.472 4.41a8.516 8.516 0 0 1-.769 1.399l-.094.134c-.432.563-.742.649-.888.649a.62.62 0 0 1-.338-.116c-1.332-.866-2.39-3.591-1.777-6.486z"/><path d="M9.283 10.532c.495 0 .728-.351.728-.351.156-.23.38-.44.676-.44.313 0 .572.235.708.482l.002.003.005.01c.033.06.192.296.641.296.475 0 .49-.384.489-.442-.213-.85-.97-1.43-1.874-1.43-.9 0-1.655.577-1.87 1.421-.001.061.038.45.495.45zM13.963 10.532c.496 0 .728-.351.728-.351.156-.23.38-.44.676-.44.314 0 .573.235.709.482l.001.003.006.01c.033.06.191.296.64.296.475 0 .49-.384.49-.442-.213-.85-.97-1.43-1.874-1.43-.9 0-1.655.577-1.87 1.421-.002.061.038.45.494.45z"/></g></svg>
