<svg width="47" height="46" xmlns="http://www.w3.org/2000/svg"><defs><filter x="-2.1%" y="-1.6%" width="104.3%" height="105.6%" filterUnits="objectBoundingBox" id="b"><feOffset dy="4" in="SourceAlpha" result="shadowOffsetOuter1"/><feGaussianBlur stdDeviation="3.5" in="shadowOffsetOuter1" result="shadowBlurOuter1"/><feColorMatrix values="0 0 0 0 0.994844813 0 0 0 0 0.992587727 0 0 0 0 0.992587727 0 0 0 0.5 0" in="shadowBlurOuter1" result="shadowMatrixOuter1"/><feMerge><feMergeNode in="shadowMatrixOuter1"/><feMergeNode in="SourceGraphic"/></feMerge></filter><linearGradient x1="50%" y1="0%" x2="50%" y2="99.982%" id="a"><stop stop-color="#F6B45A" offset="0%"/><stop stop-color="#F2806D" offset="99.982%"/></linearGradient></defs><g filter="url(#b)" transform="translate(-598 -51)" fill="url(#a)" fill-rule="nonzero"><path d="M612.278 54h2.415v5.434h-2.415zM628.278 54h2.415v5.434h-2.415z"/><path d="M632.011 58v2.645h-5.466V58h-10.6v2.645h-5.4V58h-5.267v6.679h1.333v21.095h29.334V64.679h1.333V58h-5.267zm1.267 25.195H609.21V64.613h24.067v18.582z"/><path d="M612.278 67h2.415v2.415h-2.415zM617.278 67h2.415v2.415h-2.415zM623.278 67h2.415v2.415h-2.415zM628.278 67h2.415v2.415h-2.415zM612.278 73h2.415v2.415h-2.415zM617.278 73h2.415v2.415h-2.415zM623.278 73h2.415v2.415h-2.415zM628.278 73h2.415v2.415h-2.415zM612.278 78h2.415v2.415h-2.415zM617.278 78h2.415v2.415h-2.415zM623.278 78h2.415v2.415h-2.415zM628.278 78h2.415v2.415h-2.415z"/></g></svg>
