<svg width="23" height="18" xmlns="http://www.w3.org/2000/svg"><g fill="#D6D5D5" fill-rule="nonzero"><path d="M11.482 7.98a2.439 2.439 0 0 0 0 4.877 2.44 2.44 0 0 0 0-4.877"/><path d="M19.96 2.658h-3.014c-.008-.03-.012-.06-.026-.092l-.276-.7C16.232.84 14.995 0 13.893 0H9.07C7.968 0 6.731.84 6.322 1.866l-.279.7c-.012.032-.016.062-.026.092H3.005C1.355 2.658 0 4.017 0 5.675v9.04a3.02 3.02 0 0 0 3.005 3.016h16.956c1.65 0 3.003-1.357 3.003-3.016v-9.04c0-1.658-1.354-3.017-3.004-3.017zm-8.478 12.635c-2.557 0-4.635-2.089-4.635-4.655 0-2.567 2.078-4.654 4.635-4.654 2.556 0 4.636 2.088 4.636 4.655 0 2.566-2.08 4.654-4.636 4.654zm9.429-8.787h-2.96V5.021h2.96v1.485z"/></g></svg>
