<svg width="24" height="20" xmlns="http://www.w3.org/2000/svg"><g fill="#F6AF70" fill-rule="nonzero"><path d="M6.186 14.31h-4.95c-.249 0-.45-.218-.45-.487 0-.27.201-.488.45-.488H5.1l-1.405-1.522a1.309 1.309 0 0 0-.955-.428H1.236c-.249 0-.45-.219-.45-.488s.201-.487.45-.487H2.74c.602 0 1.166.253 1.592.713l2.173 2.354c.128.14.167.35.097.532a.452.452 0 0 1-.416.301zM5.661 19.186H2.736a1.465 1.465 0 0 1-1.463-1.463v-1.95a.488.488 0 0 1 .975 0v1.95c0 .27.22.488.488.488H5.66a.488.488 0 0 0 .488-.488v-1.462a.488.488 0 0 1 .975 0v1.462c0 .807-.656 1.463-1.463 1.463z"/><path d="M16.388 17.236H7.612a.49.49 0 0 1-.219-.052l-1.847-.923H1.273a.486.486 0 0 1-.471-.362 17.369 17.369 0 0 1-.504-4.027C.298 9.675.98 8.34 2.51 7.54 3.854 6.837 6.87 6.509 12 6.509c5.13 0 8.146.328 9.49 1.03 1.53.8 2.212 2.136 2.212 4.333 0 2.113-.484 3.95-.504 4.027a.486.486 0 0 1-.471.362h-4.273l-1.848.923a.482.482 0 0 1-.218.052zm-8.661-.975h8.546l1.848-.924a.483.483 0 0 1 .219-.052h4.002c.134-.62.385-1.963.385-3.413 0-1.836-.49-2.841-1.688-3.468-1.168-.61-4.209-.92-9.039-.92s-7.87.31-9.039.92c-1.198.627-1.688 1.632-1.688 3.468 0 1.45.25 2.792.386 3.413h4.002a.49.49 0 0 1 .219.052l1.847.924z"/><path d="M22.764 14.31h-4.95a.451.451 0 0 1-.417-.301.52.52 0 0 1 .098-.532l2.173-2.354c.426-.46.99-.713 1.591-.713h1.505c.249 0 .45.218.45.487 0 .27-.201.488-.45.488H21.26a1.31 1.31 0 0 0-.955.428L18.9 13.335h3.864c.249 0 .45.219.45.488s-.201.487-.45.487zM14.926 14.31H9.074a.488.488 0 0 1-.374-.175l-2.438-2.926a.487.487 0 0 1 .375-.8h10.726a.488.488 0 0 1 .375.8L15.3 14.135a.488.488 0 0 1-.374.175zm-5.623-.975h5.393l1.626-1.95H7.677l1.626 1.95zM21.264 8.46a.488.488 0 0 1-.447-.294C19.716 5.63 18.369 2.815 18.02 2.49c-.374-.317-1.962-.857-5.533-.857h-.976c-3.57 0-5.16.54-5.535.86-.346.322-1.693 3.138-2.794 5.673a.487.487 0 0 1-.895-.39C2.842 6.502 4.7 2.298 5.345 1.749c.805-.683 3.11-1.09 6.167-1.09h.976c3.058 0 5.362.407 6.167 1.091.645.549 2.502 4.753 3.057 6.029a.49.49 0 0 1-.448.681zM21.264 19.186H18.34a1.465 1.465 0 0 1-1.463-1.463v-1.462a.488.488 0 0 1 .975 0v1.462c0 .27.22.488.488.488h2.925a.488.488 0 0 0 .488-.488v-1.95a.488.488 0 0 1 .975 0v1.95c0 .807-.656 1.463-1.463 1.463z"/></g></svg>
