<svg width="25" height="22" xmlns="http://www.w3.org/2000/svg"><g fill="#F6B173" fill-rule="nonzero"><circle cx="7.602" cy="13.304" r="1"/><circle cx="18.056" cy="13.304" r="1"/><path d="M24.708 13.004c0-1.395-1.03-2.557-2.383-2.795v-.42C22.325 4.39 17.852 0 12.354 0S2.383 4.391 2.383 9.788v.421C1.03 10.447 0 11.61 0 13.004c0 1.407 1.048 2.578 2.418 2.802.192 2.156 1.198 3.75 2.996 4.74 1.6.882 3.87 1.31 6.94 1.31 3.07 0 5.34-.428 6.94-1.31 1.798-.99 2.803-2.584 2.996-4.74 1.37-.224 2.418-1.395 2.418-2.802zm-23.687 0c0-.839.577-1.548 1.362-1.767v3.535a1.846 1.846 0 0 1-1.362-1.768zm20.283 2.013c0 2.201-.822 3.724-2.51 4.655-1.444.796-3.55 1.182-6.44 1.182-2.89 0-4.997-.386-6.44-1.182-1.689-.93-2.51-2.454-2.51-4.655V9.788c0-3.967 2.693-7.328 6.379-8.415 2.807.035 4.303 2.024 4.303 3.465 0 1.103-.915 2.001-2.039 2.001-.843 0-1.529-.673-1.529-1.5 0-.607.503-1.1 1.121-1.1.282 0 .51-.225.51-.502a.506.506 0 0 0-.51-.501c-1.181 0-2.142.943-2.142 2.103 0 1.38 1.144 2.503 2.55 2.503 1.687 0 3.06-1.348 3.06-3.004 0-1.04-.533-2.16-1.425-2.995a5.196 5.196 0 0 0-1.205-.839c4.878.065 8.827 3.98 8.827 8.784v5.229zm1.02-.245v-3.535a1.846 1.846 0 0 1 1.362 1.767c0 .84-.576 1.55-1.361 1.768z"/><path d="M14.332 15.348c-1.09 1.041-2.866 1.041-3.956 0a.529.529 0 0 0-.723 0c-.2.19-.2.5 0 .69a3.902 3.902 0 0 0 2.7 1.067c.979 0 1.957-.355 2.702-1.067.2-.19.2-.5 0-.69a.529.529 0 0 0-.723 0z"/></g></svg>
