<svg width="15" height="20" xmlns="http://www.w3.org/2000/svg"><path d="M14.49 18.962h-.78v-2.54c0-2.48-2.07-3.963-4.058-5.41-.274-.2-.624-.578-.624-1.157 0-.578.315-1.142.624-1.383 1.935-1.508 4.057-2.93 4.057-5.41V1.037h.78c.259 0 .468-.195.468-.434 0-.24-.21-.434-.468-.434H.447c-.259 0-.468.194-.468.434s.21.434.468.434h.78V3.06c0 2.48 2.122 3.903 4.057 5.411.309.241.624.805.624 1.383 0 .579-.35.957-.624 1.157-1.988 1.447-4.057 2.93-4.057 5.41v2.54h-.78c-.259 0-.468.195-.468.434 0 .24.21.434.468.434h14.042c.259 0 .468-.194.468-.434s-.21-.434-.468-.434zM12.772 1.038V3.06c0 .66-.189 1.23-.506 1.75a.48.48 0 0 0-.118-.015h-9.49a3.29 3.29 0 0 1-.496-1.735V1.038h10.61zm-6.886 6.77l-.464-.358C4.636 6.844 3.9 6.276 3.326 5.663h8.284c-.574.613-1.31 1.181-2.096 1.787l-.464.359c-.494.385-.846 1.049-.934 1.723l-.37.152a.832.832 0 0 1-.278.042.812.812 0 0 1-.278-.042l-.37-.152c-.087-.674-.44-1.338-.933-1.723zm-.078 3.924l.053-.038c.284-.207.715-.612.895-1.24l.053.022c.215.087.436.116.658.117a1.77 1.77 0 0 0 .658-.117l.053-.021c.18.626.611 1.032.895 1.239l.053.038c1.875 1.365 3.646 2.654 3.646 4.69v1.215L8.799 16c-.4-.163-.864-.23-1.33-.231-.467.001-.932.068-1.332.232l-3.974 1.636v-1.214c0-2.037 1.771-3.326 3.646-4.69zm-3.646 6.854l4.355-1.793c.227-.096.59-.158.95-.157.36-.001.723.061.95.157l4.355 1.793v.376H2.163v-.376z" fill="#F6AF70" fill-rule="nonzero"/></svg>
