<svg width="29" height="20" xmlns="http://www.w3.org/2000/svg"><g fill="#F6AF70" fill-rule="nonzero"><path d="M26.138 10.242a.484.484 0 0 0-.468.476v1.078c0 .253.218.475.468.475s.468-.222.468-.475v-1.078c-.032-.286-.219-.476-.468-.476zM28.01 4.534L20.8.476a1.239 1.239 0 0 0-1.154 0l-2.31 1.3h-4.992c-.968 0-1.841.507-2.34 1.3a2.769 2.769 0 0 0-2.341-1.3H1.39c-.561 0-1.03.475-1.03 1.046v14.586c0 .57.469 1.047 1.03 1.047h6.273c.53 0 1.06.253 1.435.665.25.286.562.444.905.444h.094c.312-.031.593-.19.78-.412.374-.412.874-.666 1.435-.666h6.273c.562 0 1.03-.475 1.03-1.046v-3.234a.484.484 0 0 0-.468-.476.484.484 0 0 0-.469.476v3.234c0 .063-.062.127-.124.127h-6.21c-.718 0-1.373.285-1.904.76V4.63c0-1.046.843-1.934 1.904-1.934h3.307l-3.276 1.84a.844.844 0 0 0-.437.729c0 .317.156.602.437.729l2.996 1.68v2.505c0 .54.25 1.047.655 1.332a6.83 6.83 0 0 0 4.15 1.395 6.83 6.83 0 0 0 4.15-1.395c.406-.317.656-.792.656-1.332V7.42a.441.441 0 0 0-.218-.38.37.37 0 0 0-.437 0l-3.963 2.219a.231.231 0 0 1-.281 0l-7.146-3.995 7.114-3.996a.231.231 0 0 1 .281 0l7.115 3.996-1.56.856c-.156.095-.25.222-.25.412v2.346c0 .254.219.476.468.476.25 0 .468-.19.468-.476v-2.06l1.436-.793a.844.844 0 0 0 .437-.73.856.856 0 0 0-.437-.76zM7.664 17.567H1.39c-.062 0-.124-.064-.124-.127V2.854c0-.064.062-.127.124-.127h6.273c1.03 0 1.903.856 1.903 1.934V18.36a2.645 2.645 0 0 0-1.903-.792zm8.613-9.386l3.339 1.87c.374.19.811.19 1.154 0l3.308-1.838v1.965c0 .254-.094.476-.28.603a5.994 5.994 0 0 1-3.62 1.205 5.994 5.994 0 0 1-3.62-1.205c-.188-.127-.281-.349-.281-.603V8.181z"/></g></svg>
