<svg width="8" height="16" viewBox="0 0 8 16" xmlns="http://www.w3.org/2000/svg"><defs><linearGradient x1="50%" y1="0%" x2="50%" y2="99.504%" id="facebook-icon-svg"><stop stop-color="#F7AB42" offset="0%"/><stop stop-color="#FBA093" offset="100%"/></linearGradient></defs><path d="M382.699 408.003l-1.92-.003c-2.155 0-3.548 1.46-3.548 3.719v1.715h-1.93a.305.305 0 0 0-.301.308v2.484c0 .17.135.308.302.308h1.929v6.269c0 .17.135.308.302.308h2.517a.305.305 0 0 0 .302-.308v-6.269h2.255a.305.305 0 0 0 .302-.308l.001-2.484a.312.312 0 0 0-.088-.218.299.299 0 0 0-.214-.09h-2.256v-1.454c0-.699.163-1.053 1.054-1.053h1.292a.305.305 0 0 0 .302-.309v-2.307a.305.305 0 0 0-.301-.308z" transform="translate(-375 -408)" fill="url(#facebook-icon-svg)" fill-rule="nonzero"/></svg>
