<svg width="512" height="512" xmlns="http://www.w3.org/2000/svg"><defs><linearGradient x2=".512" y1="1" x1=".492" id="a"><stop offset="0" stop-opacity=".996" stop-color="#fb786b"/><stop offset="1" stop-opacity=".996" stop-color="#fc9e67"/></linearGradient></defs><path fill="none" d="M-1-1h582v402H-1z"/><g><path fill="url(#a)" d="M491.4 210.1H260.9v95.6h133.5c-5.2 30.5-23.3 58.5-49 75.6-16.2 10.9-34.8 17.9-53.9 21.3-19.3 3.3-39.2 3.7-58.4-.2-19.6-3.9-38.2-12.1-54.5-23.5-26-18.3-45.9-45.1-56.1-75.2-10.4-30.6-10.5-64.8 0-95.4 7.3-21.6 19.5-41.5 35.5-57.7 19.8-20.2 45.5-34.7 73.1-40.6 23.7-5.1 48.7-4.1 71.9 2.9 19.7 6 37.9 16.8 52.8 31 15.1-15 30-30 45.1-45 7.9-8.1 16.2-15.8 23.8-24.1-22.8-21.1-49.6-38.1-78.8-48.8-52.6-19.4-112-19.8-165-1.4C121.1 45 70.3 89.6 42.1 146.1c-9.8 19.4-17 40.2-21.3 61.6C10 260.8 17.5 317.5 42.1 366c15.9 31.6 38.8 59.7 66.5 81.8 26.2 20.9 56.7 36.3 89 44.9 40.8 10.9 84.2 10.7 125.3 1.3 37.1-8.5 72.2-26.3 100.3-52.2 29.6-27.2 50.8-63.1 62-101.7 12.1-42 13.8-86.9 6.2-130z" class="st0"/></g></svg>
