<svg width="143" height="35" xmlns="http://www.w3.org/2000/svg" xmlns:xlink="http://www.w3.org/1999/xlink"><defs><path d="M23.754 12.484l-7.431-4.19L1.988.21C1.192-.238.4.034.4.971v32.93c0 .703.567 1.006 1.258.616l14.665-8.268 7.431-4.19 7.143-4.027c.839-.472.758-1.12.05-1.493-.706-.372-7.193-4.055-7.193-4.055z" id="a"/><linearGradient x1="50.002%" y1="0%" x2="50.002%" y2="100.002%" id="b"><stop stop-color="#207CB0" offset="0%"/><stop stop-color="#3CB2BF" offset="37.6%"/><stop stop-color="#58E9CE" offset="79.6%"/><stop stop-color="#63FFD4" offset="100%"/></linearGradient><path d="M23.754 12.484l-7.431-4.19L1.988.21C1.192-.238.4.034.4.971v32.93c0 .703.567 1.006 1.258.616l14.665-8.268 7.431-4.19 7.143-4.027c.839-.472.758-1.12.05-1.493-.706-.372-7.193-4.055-7.193-4.055z" id="d"/><linearGradient x1="0%" y1="50%" y2="50%" id="e"><stop stop-color="#4BC3AE" offset="0%"/><stop stop-color="#DEE999" offset="100%"/></linearGradient><path d="M23.754 12.484l-7.431-4.19L1.988.21C1.192-.238.4.034.4.971v32.93c0 .703.567 1.006 1.258.616l14.665-8.268 7.431-4.19 7.143-4.027c.839-.472.758-1.12.05-1.493-.706-.372-7.193-4.055-7.193-4.055z" id="g"/><linearGradient x1="50%" y1="0%" x2="50%" y2="100.003%" id="h"><stop stop-color="#EC403D" offset="0%"/><stop stop-color="#C93B75" offset="38.4%"/><stop stop-color="#A636AC" offset="79.9%"/><stop stop-color="#9934C2" offset="100%"/></linearGradient><path d="M23.754 12.484l-7.431-4.19L1.988.21C1.192-.238.4.034.4.971v32.93c0 .703.567 1.006 1.258.616l14.665-8.268 7.431-4.19 7.143-4.027c.839-.472.758-1.12.05-1.493-.706-.372-7.193-4.055-7.193-4.055z" id="j"/><linearGradient x1="50.002%" y1="0%" x2="50.002%" y2="100%" id="k"><stop stop-color="#F87" offset="0%"/><stop stop-color="#FFB175" offset="61.2%"/><stop stop-color="#FFC774" offset="100%"/></linearGradient></defs><g fill="none" fill-rule="evenodd"><g><mask id="c" fill="#fff"><use xlink:href="#a"/></mask><path fill="url(#b)" fill-rule="nonzero" mask="url(#c)" d="M.4-.555v35.652l18.41-17.825z"/></g><g><mask id="f" fill="#fff"><use xlink:href="#d"/></mask><path fill="url(#e)" fill-rule="nonzero" mask="url(#f)" d="M23.754 12.484l-7.431-4.19L.4-.684v.129l18.41 17.827z"/></g><g><mask id="i" fill="#fff"><use xlink:href="#g"/></mask><path fill="url(#h)" fill-rule="nonzero" mask="url(#i)" d="M.4 35.097v.13l15.923-8.978 7.43-4.19-4.943-4.787z"/></g><g><mask id="l" fill="#fff"><use xlink:href="#j"/></mask><path fill="url(#k)" fill-rule="nonzero" mask="url(#l)" d="M23.754 12.484l-4.944 4.788 4.944 4.787 8.492-4.788z"/></g><path d="M114.389 24.49a4.391 4.391 0 0 1-1.83-.373 3.453 3.453 0 0 1-1.39-1.15h-.112c.075.606.113 1.18.113 1.722v4.266h-1.553V13.933h1.263l.215 1.42h.075c.4-.568.864-.978 1.394-1.23.53-.252 1.14-.379 1.825-.379 1.36 0 2.41.47 3.149 1.41.738.94 1.11 2.258 1.11 3.954 0 1.704-.377 3.026-1.128 3.97-.753.941-1.796 1.413-3.131 1.413zm-.225-9.412c-1.048 0-1.805.293-2.273.88-.468.587-.709 1.52-.721 2.8v.35c0 1.458.24 2.5.72 3.128.48.628 1.251.942 2.311.942.887 0 1.581-.363 2.083-1.088.502-.725.753-1.725.753-3 0-1.292-.25-2.284-.753-2.975-.502-.692-1.21-1.037-2.12-1.037zm8.079 9.223h-1.554V9.581h1.554v14.72zm8.93 0l-.31-1.475h-.075c-.51.65-1.02 1.09-1.53 1.319-.508.23-1.144.346-1.904.346-1.017 0-1.814-.265-2.39-.795-.577-.53-.866-1.283-.866-2.26 0-2.094 1.657-3.19 4.969-3.293l1.74-.057v-.643c0-.814-.172-1.414-.52-1.802-.346-.388-.9-.582-1.661-.582-.856 0-1.821.265-2.9.795l-.477-1.201A7.243 7.243 0 0 1 126.91 14a7.128 7.128 0 0 1 1.81-.236c1.224 0 2.13.274 2.718.823.59.549.884 1.429.884 2.64v7.076h-1.15V24.3zm-3.51-1.106c.966 0 1.726-.268 2.28-.804.551-.535.828-1.287.828-2.252v-.936l-1.555.065c-1.235.044-2.125.238-2.67.583-.547.343-.819.877-.819 1.602 0 .568.17 1 .51 1.296.34.298.815.446 1.427.446zm5.562-9.262h1.665l2.246 5.913c.493 1.349.8 2.324.917 2.923h.075c.081-.322.251-.872.51-1.652.258-.778 1.105-3.173 2.54-7.185h1.665l-4.408 11.806c-.436 1.166-.946 1.994-1.53 2.485-.584.488-1.3.732-2.148.732-.475 0-.941-.054-1.404-.16v-1.257c.38.079.765.117 1.152.113 1.066 0 1.827-.605 2.282-1.816l.57-1.475-4.132-10.427z" fill="#FFF" fill-rule="nonzero"/><g fill="#FFF" fill-rule="nonzero"><path d="M84.52 14.377c.499.403 1.537 1.25 1.537 2.863 0 1.567-.91 2.311-1.818 3.01-.282.275-.607.574-.607 1.04 0 .466.325.72.562.912l.78.592c.953.785 1.818 1.507 1.818 2.97 0 1.993-1.97 4.007-5.692 4.007-3.14 0-4.655-1.463-4.655-3.033 0-.763.389-1.844 1.667-2.586 1.341-.805 3.16-.91 4.134-.976-.303-.382-.65-.784-.65-1.44 0-.36.11-.573.218-.827a8.04 8.04 0 0 1-.693.042c-2.294 0-3.593-1.675-3.593-3.328 0-.976.455-2.058 1.385-2.842 1.235-.997 2.706-1.167 3.876-1.167h4.458l-1.386.764h-1.34v-.001zm-1.537 9.415c-.172-.021-.282-.021-.497-.021-.195 0-1.365.042-2.275.34-.476.168-1.861.678-1.861 2.184 0 1.504 1.494 2.587 3.81 2.587 2.077 0 3.182-.978 3.182-2.29 0-1.085-.713-1.654-2.359-2.8zm.628-4.03c.497-.488.54-1.165.54-1.547 0-1.527-.93-3.902-2.726-3.902-.564 0-1.17.276-1.517.7-.367.446-.477 1.018-.477 1.57 0 1.42.845 3.774 2.708 3.774.541 0 1.123-.255 1.472-.594zm-12.718 3.69c-3.436 0-5.273-2.625-5.273-4.997 0-2.774 2.312-5.143 5.598-5.143 3.175 0 5.165 2.434 5.165 4.996-.001 2.497-1.966 5.145-5.49 5.145zm2.7-1.714c.52-.678.65-1.524.65-2.352 0-1.863-.908-5.42-3.588-5.42a3.045 3.045 0 0 0-1.945.722c-.842.74-.995 1.672-.995 2.583 0 2.095 1.06 5.545 3.676 5.545.842 0 1.706-.401 2.202-1.078zm-14.414 1.715c-3.437 0-5.274-2.626-5.274-4.997 0-2.775 2.313-5.144 5.599-5.144 3.176 0 5.165 2.434 5.165 4.996-.001 2.497-1.967 5.145-5.49 5.145zm2.7-1.715c.52-.678.65-1.524.65-2.352 0-1.863-.909-5.42-3.589-5.42a3.046 3.046 0 0 0-1.944.722c-.843.74-.994 1.672-.994 2.583 0 2.095 1.058 5.545 3.674 5.545.843 0 1.707-.401 2.204-1.078zm-9.625 1.383l-3.108.702c-1.26.191-2.39.36-3.584.36-5.998 0-8.279-4.32-8.279-7.704 0-4.129 3.237-7.959 8.778-7.959 1.174 0 2.303.17 3.324.447 1.63.446 2.39 1 2.869 1.32l-1.804 1.68-.76.17.543-.852c-.738-.701-2.087-2-4.65-2-3.432 0-6.018 2.556-6.018 6.28 0 4 2.955 7.768 7.691 7.768 1.392 0 2.108-.276 2.76-.532v-3.426l-3.28.17 1.737-.916h4.607l-.565.531c-.153.13-.174.171-.217.34-.023.192-.044.81-.044 1.024v2.597z"/><path d="M91.389 22.508c-.718-.064-.869-.19-.869-1.023V9.438l.012-.138c.088-.744.305-.872.979-1.255h-3.107l-1.63.766h1.66v.01l-.001-.008v13.14c0 .424-.086.49-.585 1.127h3.846l.804-.467c-.371-.042-.74-.062-1.11-.105zm8.841.196c-.236.128-.474.276-.711.38-.714.318-1.447.402-2.095.402-.689 0-1.768-.043-2.87-.825-1.531-1.057-2.2-2.875-2.2-4.46 0-3.276 2.719-4.883 4.942-4.883.776 0 1.575.19 2.223.593 1.078.696 1.36 1.604 1.508 2.09l-5.07 2.01-1.661.127c.538 2.685 2.394 4.247 4.445 4.247 1.1 0 1.9-.38 2.633-.739l-1.144 1.058zm-2.028-6.3c.41-.148.626-.274.626-.57 0-.845-.972-1.818-2.138-1.818-.864 0-2.481.655-2.481 2.938 0 .36.043.74.064 1.12l3.93-1.67zm4.11-2.94v1.394h-.173v-1.395h-.472v-.144h1.115v.144h-.47zm1.941 1.394V13.45h-.008l-.438 1.408h-.136l-.442-1.408h-.006v1.408h-.157v-1.54h.27l.4 1.245h.006l.395-1.245h.273v1.54h-.157z"/></g></g></svg>
