<svg width="14" height="14" viewBox="0 0 14 14" xmlns="http://www.w3.org/2000/svg"><defs><linearGradient x1="50%" y1="0%" x2="50%" y2="100%" id="google-plus-icon-svg"><stop stop-color="#F7AB43" offset="0%"/><stop stop-color="#FBA093" offset="100%"/></linearGradient></defs><path d="M7 6v2.4h3.97c-.16 1.029-1.2 3.02-3.97 3.02-2.39 0-4.34-1.979-4.34-4.42 0-2.44 1.95-4.42 4.34-4.42 1.36 0 2.27.58 2.79 1.08l1.9-1.83C10.47.69 8.89 0 7 0 3.13 0 0 3.13 0 7s3.13 7 7 7c4.04 0 6.721-2.84 6.721-6.84 0-.46-.051-.81-.111-1.16H7z" fill="url(#google-plus-icon-svg)" fill-rule="nonzero"/></svg>
