<svg width="24" height="21" xmlns="http://www.w3.org/2000/svg"><g fill="#F6AF70" fill-rule="nonzero"><path d="M19.192 2.074c0 .044.046.09.046.134.091.045.137.09.228.09.774.18 1.457.538 2.003 1.077.82.807 1.185 1.75 1.185 2.871 0 .943-.274 1.75-.82 2.468-.09.045-.137.045-.182.09-.091.09-.137.18-.137.224 0 .09.046.18.137.27.046.044.091.09.228.09h.091c.684 0 1.048.313 1.048.986v2.558c0 .673-.364 1.032-1.048 1.032h-.09c-.137 0-.183.045-.228.09-.092.09-.137.134-.137.224s.045.18.137.269c.045.045.09.09.227.09h.091c1.139 0 1.731-.584 1.731-1.705v-2.558c0-.897-.364-1.39-1.093-1.615.455-.718.73-1.57.73-2.513 0-1.3-.456-2.423-1.413-3.32-.637-.673-1.367-1.077-2.186-1.211-.046-.045-.046-.09-.091-.09-.911-.942-2.05-1.391-3.37-1.391-.456 0-.911.045-1.321.18-.091 0-.137.044-.182.179-.091.045-.091.135-.046.224.046.09.091.135.137.225a.586.586 0 0 0 .273.045c.365-.135.775-.18 1.14-.18 1.136 0 2.138.404 2.912 1.167z"/><path d="M20.101 10.136c0-.978-.395-1.823-1.053-2.534-.703-.711-1.537-1.067-2.503-1.067-1.01 0-1.844.356-2.503 1.067h-.044c-.614.622-.922 1.29-1.01 2.09h-2.02c-.088-.8-.439-1.468-1.01-2.09-.703-.711-1.537-1.067-2.503-1.067-.966 0-1.844.356-2.503 1.023l-.044.044c-.658.711-1.01 1.556-1.01 2.534 0 .978.352 1.867 1.054 2.534.659.755 1.537 1.066 2.503 1.066.966 0 1.8-.31 2.503-1.066a3.334 3.334 0 0 0 1.054-2.312h1.976c.044.89.395 1.69 1.053 2.312h-.043c.659.755 1.537 1.066 2.547 1.066.966 0 1.844-.31 2.503-1.066a3.586 3.586 0 0 0 1.053-2.534zm-1.58-2h-.044c.57.577.79 1.2.79 2 0 .756-.22 1.422-.746 2h-.044c-.527.534-1.186.845-1.932.845-.79 0-1.45-.311-1.976-.845-.527-.578-.834-1.244-.834-2 0-.8.307-1.423.834-2 .527-.534 1.185-.8 1.976-.8.746 0 1.405.266 1.976.8zm-9.09 0c.528.577.791 1.2.791 2 0 .756-.263 1.422-.79 1.956l-.045.044c-.526.534-1.185.845-1.931.845-.79 0-1.405-.311-1.976-.845-.527-.578-.79-1.244-.79-2s.263-1.423.79-2c.57-.534 1.23-.8 1.976-.8s1.405.266 1.976.8z"/><path d="M9.21.593c0-.135-.088-.18-.177-.18C8.635.28 8.191.235 7.748.235c-1.286 0-2.395.449-3.282 1.391-.044 0-.044.045-.044.09-.843.134-1.552.538-2.173 1.211-.887.897-1.375 2.02-1.375 3.32 0 .943.266 1.75.71 2.513-.887.09-1.286.673-1.286 1.615v2.558c-.001 1.121.576 1.705 1.685 1.705h.531a.337.337 0 0 0 .222-.09c.089-.09.133-.18.133-.27 0-.089-.044-.134-.133-.224a.337.337 0 0 0-.222-.09h-.531c-.666 0-1.02-.358-1.02-1.031v-2.558c0-.673.354-.987 1.02-.987h.531a.337.337 0 0 0 .222-.09c.089-.09.133-.18.133-.269 0-.045-.044-.134-.133-.224a.337.337 0 0 0-.222-.09h-.133c-.576-.718-.842-1.525-.842-2.468 0-1.121.399-2.064 1.197-2.871a4.073 4.073 0 0 1 1.907-1.077.339.339 0 0 0 .222-.09c.044-.045.044-.09.044-.134C5.708 1.31 6.64.907 7.747.907c.355 0 .754.045 1.11.18.087 0 .176 0 .265-.045A.786.786 0 0 0 9.3.817c0-.09 0-.18-.09-.224zM16.361 4.735c.046-.056.093-.056.093-.113.047-.112.047-.168.047-.225-.047-.056-.047-.112-.094-.168-1.259-.9-2.564-1.294-3.963-1.294-1.445 0-2.75.393-3.963 1.294-.046.056-.046.112-.046.168-.047.057-.047.113 0 .225.046.057.046.057.14.113.046 0 .093 0 .14-.056 1.165-.788 2.377-1.182 3.73-1.182 1.305 0 2.563.394 3.729 1.182.047.056.094.056.187.056z"/><path d="M10.359 5.635c.04 0 .08 0 .12-.043.517-.298 1.074-.468 1.592-.426.478 0 .955.17 1.433.426.08.043.08.043.16.043a.494.494 0 0 0 .119-.085c0-.085.04-.128 0-.213 0-.043-.04-.085-.08-.128-.518-.298-1.075-.469-1.632-.469-.597-.042-1.195.17-1.792.469 0 .043-.04.085-.08.128v.213c.04 0 .08.042.16.085z"/><path d="M17.896 2.404C16.194.957 14.267.234 12.072.234c-2.151 0-4.078.723-5.78 2.17a5.966 5.966 0 0 0-1.21 1.175c-.851.95-1.478 1.854-1.837 2.712-.493.905-.807 1.944-.941 3.074L2.17 19.22c0 .497.09.859.314 1.085.313.407.762.633 1.389.633h16.399c1.165 0 1.702-.588 1.702-1.718v-2.848-1.853c-.045-3.12-.045-4.837-.09-5.199a11.68 11.68 0 0 0-.941-3.074c-.403-.813-1.03-1.718-1.882-2.667a7.189 7.189 0 0 0-1.165-1.175zm-.403.705l1.12 1.102c.717.882 1.344 1.719 1.747 2.468.404.837.502 1.807.681 2.865v.213c.045.132-.044 1.815 0 4.944v4.979c0 .282-.036.28-.103.327-.068.047-.256.026-.667.026H3.872c-.358 0-.672-.133-.85-.353-.135-.132-.045-.352-.045-.66l.15-9.476c.133-1.058.297-1.844.745-2.681.359-.75.941-1.77 1.703-2.652.358-.397.762-.75 1.12-1.102 1.568-1.278 3.36-1.939 5.377-1.939 2.016 0 3.853.661 5.42 1.94z"/><path d="M14.013 15.347c-.963.876-2.53.876-3.492 0a.54.54 0 0 0-.714 0 .43.43 0 0 0 0 .65c.678.617 1.57.925 2.46.925.89 0 1.781-.308 2.46-.925a.43.43 0 0 0 0-.65.54.54 0 0 0-.714 0z"/></g></svg>
