<svg width="17" height="17" xmlns="http://www.w3.org/2000/svg"><path d="M4.857 0c.082 0 .154.03.214.09s.09.131.09.214v13.964c0 .126-.054.215-.162.265l-4.553 2.43a.292.292 0 0 1-.356-.052.292.292 0 0 1-.09-.215V2.732c0-.126.054-.215.161-.265L4.715.037A.282.282 0 0 1 4.857 0zm11.84 0c.082 0 .153.03.213.09s.09.131.09.214v13.964c0 .126-.054.215-.161.265l-4.554 2.43a.292.292 0 0 1-.356-.052.292.292 0 0 1-.09-.215V2.732c0-.126.054-.215.162-.265l4.553-2.43A.282.282 0 0 1 16.696 0zM6.07 0c.051 0 .095.01.133.028l4.857 2.429c.114.063.171.155.171.275v13.964c0 .083-.03.154-.09.214a.292.292 0 0 1-.213.09.293.293 0 0 1-.133-.028l-4.857-2.429c-.114-.063-.171-.155-.171-.275V.304c0-.083.03-.154.09-.214S5.989 0 6.071 0z" fill="#FFF" fill-rule="nonzero"/></svg>
