<svg width="21" height="28" viewBox="0 0 21 28" xmlns="http://www.w3.org/2000/svg"><g fill="#FFF" fill-rule="nonzero"><path d="M7.637 23.386v.027c0 2.194 1.343 3.973 3 3.973 1.656 0 3-1.779 3-3.973l-.001-.027h-6zM20.747 19.73l-2.888-4.222V10.24c0-3.553-2.543-6.514-5.916-7.182V1.436A1.44 1.44 0 0 0 10.5 0a1.44 1.44 0 0 0-1.443 1.436v1.622c-3.373.668-5.916 3.63-5.916 7.182v5.268L.253 19.731a1.446 1.446 0 0 0-.084 1.496c.253.476.75.773 1.29.773h18.082a1.46 1.46 0 0 0 1.29-.773 1.446 1.446 0 0 0-.084-1.496z"/></g></svg>
