<svg width="24" height="16" xmlns="http://www.w3.org/2000/svg"><path d="M22.704 12.95C23.826 13.222 24 14.34 24 15.086v.248h-6.779v-.323c.025-1.84-.797-3.107-2.243-3.455.075-.199.1-.397.125-.547-.424-.571-.623-1.242-.723-1.814-.15-.025-.374-.248-.598-1.044-.3-1.044-.025-1.242.25-1.242h.049a2.94 2.94 0 0 1-.075-1.666c.15-.621.474-1.118.848-1.491.224-.249.498-.472.797-.646a3.22 3.22 0 0 1 .773-.398c.224-.074.448-.124.697-.124.1 0 .2-.025.3-.025.623 0 1.096.174 1.445.373.623.348.847.795.847.795s1.546.1.873 3.38c.199.075.349.373.124 1.218-.224.82-.448 1.044-.598 1.044-.05 0-.075-.025-.124-.05-.1.547-.3 1.144-.673 1.666.05.248.124.646.299.894-.025.025 1.395.671 3.09 1.07zm-11.09-4.773c.2 0 .448-.248.722-1.243.3-1.044.125-1.367-.124-1.466.822-3.927-1.047-4.051-1.047-4.051S10.891.87 10.143.472A3.381 3.381 0 0 0 8.4 0c-.125 0-.225 0-.35.025-.298.025-.572.074-.822.149a4.032 4.032 0 0 0-.922.472 4.732 4.732 0 0 0-.947.796c-.448.472-.847 1.068-1.022 1.814-.174.621-.15 1.317.075 2.013h-.075c-.324 0-.648.249-.299 1.491.275.97.524 1.243.723 1.243.1.696.349 1.516.872 2.187-.05.274-.124.671-.299.945 0 0-1.77.845-3.788 1.342C.2 12.8 0 14.167 0 15.062v.298h16.274v-.323c0-.895-.2-2.237-1.545-2.585a23.614 23.614 0 0 1-3.738-1.268c-.2-.273-.324-.77-.35-1.068a4.65 4.65 0 0 0 .798-1.989.27.27 0 0 0 .175.05z" fill="#FFF" fill-rule="nonzero"/></svg>
