<svg width="14" height="20" viewBox="0 0 14 20" xmlns="http://www.w3.org/2000/svg"><path d="M13.66 10.014a1.106 1.106 0 0 0-.827-.352H3.89V5.636c0-.889.304-1.648.911-2.277.608-.629 1.341-.943 2.2-.943.859 0 1.592.314 2.2.943.607.63.911 1.388.911 2.277 0 .218.077.407.231.566.154.16.336.24.547.24h.778c.21 0 .393-.08.547-.24a.789.789 0 0 0 .23-.566c0-1.551-.532-2.879-1.597-3.982C9.78.551 8.499 0 7 0S4.22.551 3.154 1.654c-1.066 1.103-1.598 2.43-1.598 3.982v4.026h-.39c-.323 0-.599.118-.826.352-.227.235-.34.52-.34.856v7.247c0 .335.113.62.34.855.227.235.503.352.827.352h11.666c.324 0 .6-.117.827-.352.226-.234.34-.52.34-.855V10.87c0-.336-.113-.62-.34-.856z" fill="#D6D5D5" fill-rule="nonzero"/></svg>
