<svg width="28" height="28" viewBox="0 0 28 28" xmlns="http://www.w3.org/2000/svg"><path d="M26.975 11.961A1.224 1.224 0 0 1 28 13.17v1.661c0 .6-.432 1.111-1.024 1.209l-2.773.463a10.407 10.407 0 0 1-1.216 2.932l1.673 2.345a1.22 1.22 0 0 1-.13 1.578l-1.174 1.175a1.222 1.222 0 0 1-1.577.13l-2.35-1.678c-.894.54-1.87.949-2.91 1.203l-.465 2.79A1.223 1.223 0 0 1 14.846 28h-1.663a1.221 1.221 0 0 1-1.206-1.024l-.467-2.789a10.422 10.422 0 0 1-3.406-1.511l-2.406 1.511a1.225 1.225 0 0 1-1.57-.224l-1.102-1.241a1.225 1.225 0 0 1-.037-1.584l1.767-2.189a10.428 10.428 0 0 1-.928-2.442l-2.804-.468A1.224 1.224 0 0 1 0 14.83v-1.662c0-.6.434-1.11 1.024-1.208l2.804-.468c.258-1.045.67-2.027 1.214-2.922L3.428 6.31a1.225 1.225 0 0 1 .13-1.579l1.174-1.175a1.226 1.226 0 0 1 1.578-.13l2.256 1.61a10.43 10.43 0 0 1 2.944-1.224l.467-2.79A1.221 1.221 0 0 1 13.183 0h1.663c.6 0 1.11.433 1.208 1.024l.464 2.788c1.275.313 2.456.85 3.5 1.58L22.39 3.9a1.225 1.225 0 0 1 1.568.224l1.103 1.241c.399.45.416 1.119.038 1.584l-1.775 2.202c.382.734.676 1.522.878 2.346l2.773.463zM14.044 19.25A5.251 5.251 0 1 0 8.794 14a5.251 5.251 0 0 0 5.25 5.25z" fill="#FFF" fill-rule="nonzero"/></svg>
