<svg width="20" height="20" xmlns="http://www.w3.org/2000/svg"><path d="M19.577 8.588l-4.029 3.328a.864.864 0 0 0-.275.838l1.208 5.024c.17.816-.424 1.481-1.124 1.481-.212 0-.424-.064-.615-.193l-4.389-2.727a.762.762 0 0 0-.848 0l-4.347 2.727c-.19.129-.424.193-.636.193-.7 0-1.336-.665-1.124-1.481l1.209-5.024c.064-.301-.021-.623-.276-.816L.408 8.588c-.805-.708-.339-2.06.7-2.125l5.132-.365a.834.834 0 0 0 .7-.516L8.89.752A1.2 1.2 0 0 1 9.993 0a1.2 1.2 0 0 1 1.102.751l1.951 4.831c.106.28.382.473.7.516l5.131.365c1.06.064 1.527 1.417.7 2.125z" fill="#FFF" fill-rule="nonzero"/></svg>
