<svg width="16" height="17" xmlns="http://www.w3.org/2000/svg"><g fill-rule="nonzero" fill="none"><path d="M7.933 8.5c2.191 0 3.967-1.903 3.967-4.25S11.317 0 7.933 0C4.55 0 3.967 1.903 3.967 4.25S5.743 8.5 7.933 8.5z" fill="#D6D5D5"/><path d="M.008 14.639c-.007-.919-.014-.259 0 0zM15.867 15.583c.021-.142.007-.987 0 0z" fill="#000"/><path d="M15.858 14.454c-.078-4.063-.719-5.221-5.625-5.954 0 0-.69.728-2.3.728-1.609 0-2.3-.728-2.3-.728C.781 9.225.101 10.365.012 14.322c-.007.323-.01.34-.012.302v.427S1.17 17 7.935 17c6.764 0 7.932-1.949 7.932-1.949v-.316c0 .024-.003-.021-.008-.281z" fill="#D6D5D5"/></g></svg>
