<svg width="19" height="11" viewBox="0 0 19 11" xmlns="http://www.w3.org/2000/svg"><defs><linearGradient x1="50%" y1="0%" x2="50%" y2="99.354%" id="vkontakte-icon-svg"><stop stop-color="#F7AB43" offset="0%"/><stop stop-color="#FBA093" offset="100%"/></linearGradient></defs><path d="M18.213 8.698c.25.3.486.61.667.96.256.496.024 1.041-.421 1.071l-2.768-.001c-.714.059-1.284-.228-1.762-.716-.384-.39-.739-.804-1.107-1.207a2.62 2.62 0 0 0-.498-.443c-.378-.245-.706-.17-.922.224-.22.4-.27.844-.291 1.29-.03.65-.227.822-.882.852-1.399.066-2.727-.146-3.96-.85-1.088-.622-1.932-1.5-2.666-2.493C2.174 5.451 1.08 3.325.096 1.141-.125.648.036.384.58.375A75.217 75.217 0 0 1 3.29.374c.367.005.61.215.752.561a16.771 16.771 0 0 0 1.837 3.4c.2.282.403.563.693.762.321.22.566.146.717-.21.096-.227.137-.471.16-.714.07-.834.08-1.667-.045-2.499-.077-.519.044.326-.115-.607C7.212.62 7.212.816 7.212.6c0-.29-.027-.6.39-.6h2.793c.493.097.602.318.67.813l.002 3.47c-.005.192.096.76.442.888.276.09.459-.131.625-.306.749-.794 1.283-1.733 1.76-2.704.213-.427.395-.871.571-1.314.131-.33.337-.491.708-.484l3.01.003c.09 0 .18.001.266.016.508.086.647.304.49.799-.247.776-.727 1.423-1.197 2.073-.502.694-1.039 1.364-1.537 2.062-.457.638-.421.959.147 1.512.63.615 1.296 1.193 1.86 1.87z" fill="url(#vkontakte-icon-svg)" fill-rule="nonzero"/></svg>
